<?xml version="1.0" encoding="UTF-8"?>
<!DOCTYPE svg PUBLIC "-//W3C//DTD SVG 1.1//EN" "http://www.w3.org/Graphics/SVG/1.1/DTD/svg11.dtd">
<svg xmlns="http://www.w3.org/2000/svg" version="1.1" width="1300px" height="1100px" style="shape-rendering:geometricPrecision; text-rendering:geometricPrecision; image-rendering:optimizeQuality; fill-rule:evenodd; clip-rule:evenodd" xmlns:xlink="http://www.w3.org/1999/xlink">
<g><path style="opacity:0.953" fill="#030201" d="M 1003.5,914.5 C 1008.14,910.043 1013.47,906.543 1019.5,904C 1026.02,902.267 1032.35,900.101 1038.5,897.5C 1032.89,892.34 1026.22,889.173 1018.5,888C 1010.99,887.178 1003.65,887.345 996.5,888.5C 988.945,885.764 988.611,882.264 995.5,878C 997.833,877.667 1000.17,877.333 1002.5,877C 997.268,872.388 992.601,867.221 988.5,861.5C 981.606,860.621 976.606,863.455 973.5,870C 979.708,876.539 985.541,883.373 991,890.5C 1004.35,918.114 997.517,938.947 970.5,953C 961.452,953.942 952.786,956.276 944.5,960C 821.733,1050.02 685.733,1078.69 536.5,1046C 482.591,1033.04 431.924,1012.37 384.5,984C 374.833,977 365.167,970 355.5,963C 345.967,957.823 335.967,953.823 325.5,951C 305.081,941.667 296.581,925.833 300,903.5C 300.534,899.232 301.867,895.232 304,891.5C 308.667,886.167 313.333,880.833 318,875.5C 317.399,867.568 313.233,862.734 305.5,861C 300.833,866.333 296.167,871.667 291.5,877C 296.69,876.696 301.19,878.196 305,881.5C 304.963,885.058 303.13,887.391 299.5,888.5C 284.182,884.998 270.182,887.831 257.5,897C 258.167,897.667 258.833,898.333 259.5,899C 271.793,901.152 282.793,905.985 292.5,913.5C 296.37,920.471 294.37,922.971 286.5,921C 276.394,912.402 264.727,907.069 251.5,905C 244.969,901.117 244.136,896.283 249,890.5C 252.582,886.957 256.749,884.29 261.5,882.5C 230.946,870.726 220.113,849.06 229,817.5C 229.833,816.667 230.667,815.833 231.5,815C 212.881,806.38 199.714,792.547 192,773.5C 181.191,759.354 167.191,750.021 150,745.5C 149.333,743.5 149.333,741.5 150,739.5C 154.046,733.894 159.546,731.06 166.5,731C 156.464,715.423 149.297,698.59 145,680.5C 144.333,674.5 144.333,668.5 145,662.5C 146.029,659.125 148.196,657.958 151.5,659C 156.167,662.667 160.833,666.333 165.5,670C 169.785,672.706 174.452,673.873 179.5,673.5C 176.306,666.109 172.806,658.775 169,651.5C 162.079,636.926 166.246,631.759 181.5,636C 189.886,638.347 197.72,641.847 205,646.5C 201.653,630.635 192.487,619.302 177.5,612.5C 163.989,624.735 150.823,624.401 138,611.5C 131.093,599.183 132.593,588.016 142.5,578C 158.188,569.338 170.854,572.505 180.5,587.5C 185.737,588.632 190.57,590.632 195,593.5C 193.179,582.632 192.013,571.632 191.5,560.5C 174.099,558.882 160.932,550.548 152,535.5C 148.114,526.06 143.447,517.06 138,508.5C 133.922,503.751 129.255,499.751 124,496.5C 122.348,491.154 123.848,486.987 128.5,484C 137.141,479.893 146.141,478.393 155.5,479.5C 155.209,474.335 154.876,469.169 154.5,464C 155.638,455.036 156.304,446.036 156.5,437C 156.03,426.093 155.197,415.26 154,404.5C 154.479,402.354 155.812,401.354 158,401.5C 159.984,401.741 161.817,402.408 163.5,403.5C 164.379,399.846 165.213,396.179 166,392.5C 172.632,380.234 174.299,367.234 171,353.5C 168.746,349.993 166.746,346.327 165,342.5C 164.063,335.765 167.063,332.432 174,332.5C 185.924,337.757 194.59,346.423 200,358.5C 203.393,367.188 205.393,376.188 206,385.5C 210.105,387.36 213.105,390.36 215,394.5C 226.861,380.694 229.361,365.361 222.5,348.5C 207.402,354.37 196.236,350.036 189,335.5C 185.409,317.354 192.742,306.687 211,303.5C 223.864,304.366 231.864,311.033 235,323.5C 238.427,326.256 241.093,329.59 243,333.5C 251.552,323.937 258.052,313.103 262.5,301C 252.641,297.807 246.141,291.307 243,281.5C 242.301,271.695 239.301,262.695 234,254.5C 231,252.167 228,249.833 225,247.5C 223.959,244.364 224.793,241.864 227.5,240C 239.063,235.195 250.396,235.695 261.5,241.5C 262.936,228.342 267.769,216.676 276,206.5C 280.381,196.223 281.714,185.556 280,174.5C 284.364,172.983 288.53,173.483 292.5,176C 295.384,179.586 298.717,182.252 302.5,184C 304.963,180.535 307.796,177.369 311,174.5C 311.5,165.506 311.666,156.506 311.5,147.5C 319.174,147.666 326.841,147.5 334.5,147C 344.132,138.868 352.132,129.368 358.5,118.5C 360.656,116.062 362.989,115.895 365.5,118C 370.877,127.027 373.543,136.861 373.5,147.5C 379.351,148.326 384.684,147.159 389.5,144C 396,138.833 401.833,133 407,126.5C 407.667,125.5 407.667,124.5 407,123.5C 399.398,117.7 396.731,110.033 399,100.5C 404.061,89.5536 412.561,85.387 424.5,88C 435.132,93.0904 439.632,101.59 438,113.5C 440.754,111.873 443.588,110.373 446.5,109C 455.856,105.996 465.19,102.996 474.5,100C 481.516,94.1232 486.682,86.9565 490,78.5C 499.835,68.4964 511.668,61.9964 525.5,59C 528.626,56.5497 530.959,53.5497 532.5,50C 535.904,46.5327 539.071,46.6994 542,50.5C 543.512,55.393 544.512,60.393 545,65.5C 564.899,62.4319 583.399,66.2652 600.5,77C 605.633,78.6643 610.8,78.8309 616,77.5C 617.473,77.9031 618.806,78.5697 620,79.5C 620.79,82.634 620.457,85.634 619,88.5C 614.833,94 610,98.8333 604.5,103C 620.078,106.923 631.911,115.756 640,129.5C 642.167,136.667 639.667,139.167 632.5,137C 626.561,132.743 619.894,130.576 612.5,130.5C 606.503,131.223 600.503,132.056 594.5,133C 592.668,133.748 591.001,134.748 589.5,136C 593.621,138.561 596.287,142.228 597.5,147C 628.832,147.5 660.165,147.667 691.5,147.5C 691.154,144.398 691.821,141.565 693.5,139C 682.977,138.272 673.643,134.605 665.5,128C 662.584,123.08 658.918,118.747 654.5,115C 646.15,109.575 637.317,105.075 628,101.5C 627.289,99.6332 627.789,98.1332 629.5,97C 634.728,95.0257 640.062,93.3591 645.5,92C 640.667,87.1667 635.833,82.3333 631,77.5C 627.874,74.4534 627.041,70.9534 628.5,67C 630,66.8333 631.5,66.6667 633,66.5C 641.29,67.8748 649.623,68.8748 658,69.5C 660.5,69.1667 663,68.8333 665.5,68.5C 660.862,60.2228 659.862,51.7228 662.5,43C 664.833,42.3333 667.167,42.3333 669.5,43C 674.76,47.8158 680.76,49.1492 687.5,47C 688.935,44.3412 689.935,41.5079 690.5,38.5C 693.239,37.2327 695.906,37.3994 698.5,39C 709.289,48.726 721.956,54.0594 736.5,55C 754.217,60.0587 767.883,70.3921 777.5,86C 785.906,92.1338 795.239,95.4671 805.5,96C 800.469,86.0126 801.802,77.0126 809.5,69C 822.93,62.1451 833.097,65.3118 840,78.5C 840.667,82.5 840.667,86.5 840,90.5C 838.656,93.6712 837.49,96.8378 836.5,100C 839.409,109.916 845.075,117.916 853.5,124C 860.942,129.054 868.942,133.054 877.5,136C 881.884,138.717 885.218,142.384 887.5,147C 888.448,147.483 889.448,147.649 890.5,147.5C 890.589,140.355 888.422,134.022 884,128.5C 882.071,123.151 882.071,117.818 884,112.5C 888.006,107.834 892.506,107.334 897.5,111C 905.709,120.448 915.709,127.448 927.5,132C 932.982,136.315 937.982,141.149 942.5,146.5C 956.15,147.499 969.817,147.833 983.5,147.5C 983.334,155.84 983.5,164.173 984,172.5C 988.716,175.549 992.382,179.549 995,184.5C 998.534,180.631 1002.37,177.131 1006.5,174C 1010.22,171.942 1013.72,172.109 1017,174.5C 1014.25,186.099 1015.92,197.099 1022,207.5C 1029.67,217.486 1034,228.82 1035,241.5C 1047.37,233.815 1059.71,233.815 1072,241.5C 1072.63,243.635 1072.3,245.635 1071,247.5C 1066,250.5 1062,254.5 1059,259.5C 1056.58,268.126 1054.24,276.793 1052,285.5C 1047.91,292.472 1042.08,297.472 1034.5,300.5C 1038.79,312.423 1045.13,323.09 1053.5,332.5C 1054.76,330.321 1056.26,328.321 1058,326.5C 1059.41,313.421 1066.58,305.921 1079.5,304C 1100.49,302.659 1109.99,312.492 1108,333.5C 1103.37,345.163 1094.7,351.163 1082,351.5C 1078.88,351.21 1075.88,350.544 1073,349.5C 1067.46,365.986 1070.46,380.653 1082,393.5C 1083.8,389.367 1086.64,386.2 1090.5,384C 1091.48,364.715 1099.14,348.715 1113.5,336C 1116.11,334.111 1118.94,332.611 1122,331.5C 1127.46,331.303 1130.96,333.803 1132.5,339C 1131.25,343.67 1129.08,347.837 1126,351.5C 1124.53,360.454 1124.19,369.454 1125,378.5C 1125.9,382.538 1127.57,386.205 1130,389.5C 1131.32,393.796 1132.49,398.129 1133.5,402.5C 1139.53,398.847 1142.86,400.514 1143.5,407.5C 1139.89,425.595 1139.56,443.762 1142.5,462C 1142.12,467.379 1141.46,472.712 1140.5,478C 1140.83,478.5 1141.17,479 1141.5,479.5C 1152.76,477.19 1162.92,479.523 1172,486.5C 1175.3,493.124 1173.46,497.624 1166.5,500C 1162.63,503.534 1159.13,507.367 1156,511.5C 1152.06,519.045 1148.39,526.712 1145,534.5C 1136.08,549.594 1122.91,557.927 1105.5,559.5C 1104.71,570.58 1103.54,581.58 1102,592.5C 1105.15,590.169 1108.65,588.502 1112.5,587.5C 1121.09,574.243 1133.09,569.743 1148.5,574C 1160.48,580.46 1164.98,590.293 1162,603.5C 1157.27,615.299 1148.44,621.299 1135.5,621.5C 1127.85,621.456 1121.69,618.456 1117,612.5C 1103.25,619.563 1094.91,630.563 1092,645.5C 1132.27,623.107 1140.77,631.607 1117.5,671C 1117.61,672.28 1118.28,673.113 1119.5,673.5C 1129.2,671.482 1137.2,666.648 1143.5,659C 1146.07,657.017 1148.4,657.183 1150.5,659.5C 1153.26,670.257 1152.76,680.923 1149,691.5C 1144.04,704.928 1137.87,717.761 1130.5,730C 1137.68,730.161 1143.18,733.328 1147,739.5C 1147.67,741.167 1147.67,742.833 1147,744.5C 1121.45,751.714 1103.78,767.714 1094,792.5C 1085.5,802.344 1075.33,809.844 1063.5,815C 1070.9,827.526 1071.4,840.359 1065,853.5C 1057.74,866.215 1047.58,875.881 1034.5,882.5C 1041.39,884.851 1046.56,889.184 1050,895.5C 1050.38,900.823 1047.88,904.323 1042.5,906C 1034.72,906.925 1027.39,909.258 1020.5,913C 1017.11,916.053 1013.45,918.72 1009.5,921C 1006.9,921.769 1004.4,921.602 1002,920.5C 1001.26,918.119 1001.76,916.119 1003.5,914.5 Z M 778.5,119.5 C 782.438,119.635 785.772,121.135 788.5,124C 774.683,125.66 768.35,133.493 769.5,147.5C 759.161,147.666 748.828,147.5 738.5,147C 748.191,140.487 757.524,133.487 766.5,126C 770.2,123.098 774.2,120.932 778.5,119.5 Z M 497.5,131.5 C 507.672,133.468 516.005,138.635 522.5,147C 516.509,147.499 510.509,147.666 504.5,147.5C 504.332,141.168 501.998,135.835 497.5,131.5 Z M 812.5,138.5 C 822.341,137.058 830.675,139.891 837.5,147C 827.167,147.667 816.833,147.667 806.5,147C 807.113,144.853 807.779,142.686 808.5,140.5C 810.026,140.006 811.359,139.339 812.5,138.5 Z M 455.5,141.5 C 459.466,142.162 463.466,142.495 467.5,142.5C 467.5,144.167 467.5,145.833 467.5,147.5C 456.828,147.667 446.161,147.5 435.5,147C 442.04,144.201 448.707,142.368 455.5,141.5 Z M 286.5,321.5 C 295.334,321.065 303.334,323.398 310.5,328.5C 311.833,333.833 311.833,339.167 310.5,344.5C 299.645,337.242 289.645,338.242 280.5,347.5C 276.524,348.386 272.524,349.052 268.5,349.5C 271.858,340.139 276.525,331.472 282.5,323.5C 283.949,322.828 285.282,322.161 286.5,321.5 Z M 998.5,321.5 C 1003.51,321.334 1008.51,321.501 1013.5,322C 1019.5,329.849 1024.5,338.349 1028.5,347.5C 1024.52,348.344 1020.52,348.177 1016.5,347C 1009.21,339.453 1000.54,337.453 990.5,341C 988.246,342.377 986.08,343.877 984,345.5C 983.333,340.167 983.333,334.833 984,329.5C 988.397,325.888 993.23,323.221 998.5,321.5 Z M 1018.5,369.5 C 1025.77,369.553 1031.94,372.219 1037,377.5C 1043.33,384.812 1048.66,392.812 1053,401.5C 1053.67,404.167 1053.67,406.833 1053,409.5C 1041.29,396.549 1027.45,386.382 1011.5,379C 1014.85,376.499 1017.18,373.332 1018.5,369.5 Z M 983.5,375.5 C 989.739,381.393 997.072,383.559 1005.5,382C 1008.87,385.443 1010.71,389.61 1011,394.5C 1010.05,408.119 1009.39,421.786 1009,435.5C 1002.35,429.512 995.014,428.179 987,431.5C 987.125,442.212 990.292,452.045 996.5,461C 990.783,460.896 985.116,461.063 979.5,461.5C 979.167,460.333 978.833,459.167 978.5,458C 982.138,430.62 983.805,403.12 983.5,375.5 Z M 309.5,377.5 C 311.274,405.161 313.941,432.994 317.5,461C 312.816,461.35 308.149,461.85 303.5,462.5C 302.5,462.167 301.5,461.833 300.5,461.5C 304.215,454.737 307.382,447.737 310,440.5C 312.149,434.361 310.149,430.694 304,429.5C 298.313,430.228 293.147,432.228 288.5,435.5C 287.789,423.472 286.789,411.472 285.5,399.5C 284.985,392.205 287.485,386.205 293,381.5C 299.238,383.065 304.738,381.732 309.5,377.5 Z M 974.5,482.5 C 977.305,483.741 979.471,485.741 981,488.5C 988.988,508.82 1002.82,523.653 1022.5,533C 1010.08,532.46 1000.58,537.293 994,547.5C 988.619,564.237 994.119,575.737 1010.5,582C 1018.37,583.031 1025.71,581.531 1032.5,577.5C 1052.82,584.685 1061.32,599.019 1058,620.5C 1056.27,621.249 1054.43,621.749 1052.5,622C 1051.87,622.75 1051.37,623.584 1051,624.5C 1049.97,631.253 1049.3,637.92 1049,644.5C 1045.1,638.106 1043.27,631.106 1043.5,623.5C 1044.33,617.509 1044.5,611.509 1044,605.5C 1043.61,604.572 1042.95,603.905 1042,603.5C 1033.52,604.644 1027.18,608.977 1023,616.5C 1019.75,621.334 1016.75,626.334 1014,631.5C 1009.43,621.261 1002.93,612.428 994.5,605C 988.839,601.976 984.839,603.309 982.5,609C 986.036,621.011 984.869,632.511 979,643.5C 977.316,645.351 975.483,647.018 973.5,648.5C 967.394,643.03 960.561,638.697 953,635.5C 951.956,636.623 951.29,637.956 951,639.5C 949.904,647.124 949.238,654.791 949,662.5C 948.812,684.518 948.645,706.518 948.5,728.5C 938.972,731.002 932.138,736.668 928,745.5C 925.389,741.396 924.889,737.063 926.5,732.5C 924.271,715.44 914.605,707.94 897.5,710C 880.41,717.599 876.244,729.766 885,746.5C 890.702,752.933 897.869,755.933 906.5,755.5C 906.647,760.214 906.314,764.881 905.5,769.5C 890.186,773.649 879.352,782.982 873,797.5C 870.546,813.029 877.046,821.529 892.5,823C 896.152,825.274 897.985,828.441 898,832.5C 896.421,834.041 894.587,835.208 892.5,836C 887.833,836.333 883.167,836.667 878.5,837C 874.177,838.276 869.844,839.442 865.5,840.5C 865.45,836.812 865.116,833.145 864.5,829.5C 865.664,823.863 866.164,818.196 866,812.5C 855.88,812.887 847.213,816.887 840,824.5C 839.856,813.125 839.189,801.792 838,790.5C 837.881,786.579 836.048,783.912 832.5,782.5C 828.028,783.809 824.195,786.142 821,789.5C 812.886,799.617 805.552,810.284 799,821.5C 796.988,816.097 793.488,814.597 788.5,817C 786.667,818.833 784.833,820.667 783,822.5C 781.633,828.27 779.3,833.604 776,838.5C 761.966,852.866 748.3,867.532 735,882.5C 729.974,874.832 723.807,873.665 716.5,879C 713.627,882.577 711.127,886.411 709,890.5C 706.994,896.872 705.16,903.205 703.5,909.5C 690.301,912.187 676.968,913.353 663.5,913C 764.188,849.646 845.354,767.146 907,665.5C 939.877,608.374 962.377,547.374 974.5,482.5 Z M 319.5,484.5 C 344.708,599.926 397.541,700.592 478,786.5C 524.103,835.235 575.27,877.401 631.5,913C 618.096,912.825 604.763,911.658 591.5,909.5C 591.012,896.516 586.012,885.683 576.5,877C 569.917,874.772 564.75,876.606 561,882.5C 547.641,868.142 533.975,854.142 520,840.5C 515.903,834.207 512.57,827.54 510,820.5C 504.561,814.909 499.561,815.242 495,821.5C 487.993,808.327 479.16,796.494 468.5,786C 466.487,784.743 464.321,783.909 462,783.5C 459.695,783.484 458.028,784.484 457,786.5C 456.012,789.424 455.346,792.424 455,795.5C 454.667,805.5 454.333,815.5 454,825.5C 446.66,817.246 437.493,812.913 426.5,812.5C 427.003,818.181 427.67,823.848 428.5,829.5C 428.493,832.592 427.993,835.592 427,838.5C 424.34,837.166 421.506,836.332 418.5,836C 412.833,835.667 407.167,835.333 401.5,835C 396.548,832.046 396.215,828.546 400.5,824.5C 421.858,825.005 429.024,815.338 422,795.5C 413.24,782.107 401.24,772.773 386,767.5C 385.501,763.179 385.334,758.846 385.5,754.5C 397.237,756.76 406.071,752.76 412,742.5C 417.094,727.19 412.26,716.357 397.5,710C 376.708,708.125 367.375,717.458 369.5,738C 367.578,739.42 366.245,741.253 365.5,743.5C 362.492,734.819 356.492,729.819 347.5,728.5C 347.246,714.316 347.579,700.149 348.5,686C 347.758,673.513 347.258,661.013 347,648.5C 346.855,644.477 346.021,640.644 344.5,637C 336.321,639.181 329.155,643.348 323,649.5C 315.37,642.564 311.87,633.897 312.5,623.5C 312.927,618.151 313.094,612.817 313,607.5C 311.948,605.189 310.115,603.856 307.5,603.5C 302.397,605.141 298.231,608.141 295,612.5C 290.637,618.698 286.47,625.031 282.5,631.5C 277.935,622.871 272.269,615.038 265.5,608C 261.962,605.154 257.962,604.154 253.5,605C 252.679,615.423 252.179,625.923 252,636.5C 251.194,639.446 249.861,642.112 248,644.5C 247.242,638.194 246.576,631.861 246,625.5C 244.664,622.412 242.498,621.412 239.5,622.5C 234.984,600.857 242.984,586.191 263.5,578.5C 276.598,585.377 288.098,583.377 298,572.5C 305.842,557.034 302.342,544.868 287.5,536C 282.917,534.855 278.251,534.189 273.5,534C 282.759,530.067 290.925,524.567 298,517.5C 305.675,506.813 312.842,495.813 319.5,484.5 Z M 1041.5,549.5 C 1047.01,551.21 1052.68,551.877 1058.5,551.5C 1059.03,554.909 1059.53,558.242 1060,561.5C 1054.69,557.429 1048.86,554.263 1042.5,552C 1041.75,551.329 1041.41,550.496 1041.5,549.5 Z M 254.5,550.5 C 254.586,551.496 254.252,552.329 253.5,553C 247.297,555.016 241.797,558.183 237,562.5C 237.161,559.168 237.661,555.835 238.5,552.5C 243.969,552.754 249.303,552.087 254.5,550.5 Z M 929.5,760.5 C 930.933,761.833 932.267,763.333 933.5,765C 931.833,765.667 930.167,765.667 928.5,765C 929.38,763.644 929.714,762.144 929.5,760.5 Z"/></g>
<g><path style="opacity:0.999" fill="#a98838" d="M 877.5,146.5 C 868.348,147.494 859.015,147.827 849.5,147.5C 844.67,139.734 837.67,134.901 828.5,133C 822.5,132.667 816.5,132.333 810.5,132C 807.438,130.939 804.938,129.106 803,126.5C 798.684,117.333 791.351,113 781,113.5C 775.607,114.186 770.44,115.686 765.5,118C 753.926,129.915 740.926,139.915 726.5,148C 717.482,148.832 708.482,148.665 699.5,147.5C 702.061,141.543 705.728,136.376 710.5,132C 686.987,133.169 667.654,124.835 652.5,107C 648.217,104.799 643.883,102.799 639.5,101C 640.167,100.333 640.833,99.6667 641.5,99C 645.711,97.4661 650.044,97.1327 654.5,98C 676.095,114.307 700.428,121.307 727.5,119C 723.248,122.581 719.748,126.748 717,131.5C 716.183,134.964 716.517,138.298 718,141.5C 728.271,128.779 741.438,120.779 757.5,117.5C 757.023,116.522 756.357,115.689 755.5,115C 752.211,114.118 748.877,113.452 745.5,113C 751.953,109.151 758.953,107.651 766.5,108.5C 764.39,96.8712 758.39,87.7045 748.5,81C 743.659,78.0788 738.659,75.4121 733.5,73C 722.882,69.6801 712.216,66.6801 701.5,64C 696.086,60.1976 694.086,55.1976 695.5,49C 696.833,48.3333 698.167,48.3333 699.5,49C 703.007,51.254 706.673,53.254 710.5,55C 720.878,57.8947 731.211,60.8947 741.5,64C 750.915,69.0853 758.748,75.9186 765,84.5C 770.217,89.5256 776.05,93.6922 782.5,97C 793.616,99.8913 803.616,104.891 812.5,112C 814.441,112.743 816.274,112.576 818,111.5C 817.676,102.81 821.509,99.9769 829.5,103C 831.975,110.28 835.975,116.613 841.5,122C 853.702,129.929 865.702,138.096 877.5,146.5 Z M 778.5,119.5 C 774.2,120.932 770.2,123.098 766.5,126C 757.524,133.487 748.191,140.487 738.5,147C 748.828,147.5 759.161,147.666 769.5,147.5C 768.35,133.493 774.683,125.66 788.5,124C 785.772,121.135 782.438,119.635 778.5,119.5 Z M 812.5,138.5 C 811.359,139.339 810.026,140.006 808.5,140.5C 807.779,142.686 807.113,144.853 806.5,147C 816.833,147.667 827.167,147.667 837.5,147C 830.675,139.891 822.341,137.058 812.5,138.5 Z"/></g>
<g><path style="opacity:0.998" fill="#a88738" d="M 667.5,49.5 C 669.886,50.3733 671.886,51.8733 673.5,54C 679.103,55.1237 684.769,55.7904 690.5,56C 692.041,58.9156 693.707,61.7489 695.5,64.5C 690.463,65.6761 685.463,67.0094 680.5,68.5C 671.874,65.1924 667.541,58.859 667.5,49.5 Z"/></g>
<g><path style="opacity:0.999" fill="#a98838" d="M 532.5,61.5 C 536.968,61.7483 538.468,64.0817 537,68.5C 529.429,74.3692 521.596,79.8692 513.5,85C 510.269,87.7273 507.603,90.894 505.5,94.5C 505.833,94.8333 506.167,95.1667 506.5,95.5C 528.568,76.1985 553.901,69.6985 582.5,76C 588.137,78.82 593.47,82.1533 598.5,86C 606.379,85.168 608.546,88.0013 605,94.5C 599.735,99.3875 593.568,101.888 586.5,102C 582.229,95.5229 576.229,91.5229 568.5,90C 547.075,86.0232 527.409,90.3566 509.5,103C 503.983,103.084 498.649,104.084 493.5,106C 505.513,106.895 517.513,107.895 529.5,109C 532.119,109.151 534.453,109.985 536.5,111.5C 535.975,112.192 535.308,112.692 534.5,113C 525.541,114.156 516.541,115.156 507.5,116C 502.482,117.227 497.815,119.227 493.5,122C 486.125,123.118 478.791,124.451 471.5,126C 466.449,126.492 461.449,126.492 456.5,126C 454.74,126.965 454.406,128.132 455.5,129.5C 460.842,130.184 466.176,131.017 471.5,132C 474.689,132.981 475.022,134.314 472.5,136C 462.167,136.333 451.833,136.667 441.5,137C 432.382,137.726 424.716,141.393 418.5,148C 411.167,148.667 403.833,148.667 396.5,148C 405.581,143.253 412.248,136.253 416.5,127C 421.079,126.185 425.413,124.685 429.5,122.5C 430.854,124.184 432.521,124.684 434.5,124C 441.167,120.333 447.833,116.667 454.5,113C 463.54,111.542 472.206,108.876 480.5,105C 482.09,103.954 483.59,102.787 485,101.5C 491.621,81.8678 505.121,70.7011 525.5,68C 527.729,65.5997 530.063,63.433 532.5,61.5 Z"/></g>
<g><path style="opacity:0.999" fill="#aa8839" d="M 694.5,72.5 C 713.513,70.5885 730.179,75.7551 744.5,88C 735.19,87.3372 725.856,87.0039 716.5,87C 709.218,87.1386 703.552,90.1386 699.5,96C 716.772,91.3647 733.438,93.0314 749.5,101C 735.517,111.411 719.85,115.078 702.5,112C 689.751,109.305 677.751,104.638 666.5,98C 659.004,92.7511 651.337,87.7511 643.5,83C 641.253,81.005 640.253,78.505 640.5,75.5C 646.556,77.0772 652.723,78.0772 659,78.5C 671.06,77.0156 682.894,75.0156 694.5,72.5 Z"/></g>
<g><path style="opacity:0.998" fill="#ab8939" d="M 817.5,73.5 C 830.688,73.514 835.021,79.6807 830.5,92C 825.468,91.2148 820.468,91.7148 815.5,93.5C 813.971,93.4712 812.804,92.8045 812,91.5C 808.709,83.8182 810.542,77.8182 817.5,73.5 Z"/></g>
<g><path style="opacity:0.998" fill="#a88738" d="M 552.5,91.5 C 562.234,91.7808 571.068,94.7808 579,100.5C 579.743,102.441 579.576,104.274 578.5,106C 569.331,111.417 560.331,117.083 551.5,123C 540.214,125.664 528.88,125.998 517.5,124C 515.956,123.71 514.623,123.044 513.5,122C 516.089,120.803 518.756,119.803 521.5,119C 528.951,118.247 536.285,116.914 543.5,115C 548.527,113.147 551.527,109.647 552.5,104.5C 543.175,103.934 533.842,103.434 524.5,103C 532.868,96.644 542.202,92.8106 552.5,91.5 Z"/></g>
<g><path style="opacity:0.999" fill="#ab8939" d="M 413.5,95.5 C 425.319,94.4849 430.486,99.8182 429,111.5C 425.677,117.908 420.511,120.075 413.5,118C 407.092,114.677 404.925,109.511 407,102.5C 408.694,99.6424 410.861,97.309 413.5,95.5 Z"/></g>
<g><path style="opacity:0.999" fill="#ab8939" d="M 580.5,108.5 C 593.224,106.898 605.224,109.064 616.5,115C 619.538,117.703 622.205,120.703 624.5,124C 608.032,123.876 592.032,126.543 576.5,132C 570.083,132.87 563.749,132.536 557.5,131C 555.519,130.395 555.185,129.395 556.5,128C 563.819,120.499 571.819,113.999 580.5,108.5 Z"/></g>
<g><path style="opacity:0.999" fill="#a68637" d="M 911.5,146.5 C 906.695,147.487 901.695,147.821 896.5,147.5C 895.217,139.484 893.217,131.651 890.5,124C 890.258,121.652 891.092,119.818 893,118.5C 894.5,120 896,121.5 897.5,123C 912.434,127.623 924.767,135.956 934.5,148C 929.833,148.667 925.167,148.667 920.5,148C 915.815,142.135 910.148,137.635 903.5,134.5C 902.833,134.667 902.167,134.833 901.5,135C 905.416,138.41 908.749,142.243 911.5,146.5 Z"/></g>
<g><path style="opacity:0.997" fill="#a98838" d="M 364.5,147.5 C 358.974,147.821 353.64,147.488 348.5,146.5C 353.518,142.481 357.851,137.815 361.5,132.5C 365.546,136.791 366.546,141.791 364.5,147.5 Z"/></g>
<g><path style="opacity:0.999" fill="#a48437" d="M 783.5,132.5 C 786.572,132.183 789.572,132.516 792.5,133.5C 793.805,136.638 795.971,138.971 799,140.5C 799.43,143.192 799.263,145.859 798.5,148.5C 791.8,148.83 785.134,148.497 778.5,147.5C 776.49,141.203 778.157,136.203 783.5,132.5 Z"/></g>
<g><path style="opacity:0.999" fill="#a48437" d="M 519.5,135.5 C 519.735,134.903 520.235,134.57 521,134.5C 528.816,137.079 536.65,137.079 544.5,134.5C 556.027,136.934 567.693,138.1 579.5,138C 582.798,140.464 585.132,143.63 586.5,147.5C 570.177,148.666 553.844,148.833 537.5,148C 531.344,144.003 525.344,139.836 519.5,135.5 Z"/></g>
<g><path style="opacity:0.999" fill="#a08035" d="M 483.5,135.5 C 491.837,135.339 496.003,139.339 496,147.5C 489.256,148.479 482.422,148.812 475.5,148.5C 475.5,146.5 475.5,144.5 475.5,142.5C 479.374,141.631 482.041,139.297 483.5,135.5 Z"/></g>
<g><path style="opacity:0.765" fill="#5a491d" d="M 348.5,146.5 C 353.64,147.488 358.974,147.821 364.5,147.5C 358.987,148.816 353.32,148.816 347.5,147.5C 347.624,146.893 347.957,146.56 348.5,146.5 Z"/></g>
<g><path style="opacity:0.765" fill="#5a491d" d="M 877.5,146.5 C 878.043,146.56 878.376,146.893 878.5,147.5C 868.675,148.823 859.008,148.823 849.5,147.5C 859.015,147.827 868.348,147.494 877.5,146.5 Z"/></g>
<g><path style="opacity:0.765" fill="#57471c" d="M 911.5,146.5 C 912.043,146.56 912.376,146.893 912.5,147.5C 907.014,148.815 901.68,148.815 896.5,147.5C 901.695,147.821 906.695,147.487 911.5,146.5 Z"/></g>
<g><path style="opacity:1" fill="#c80015" d="M 322.5,157.5 C 539.403,157.167 756.236,157.501 973,158.5C 973.667,238.5 973.667,318.5 973,398.5C 967.466,522.471 926.799,633.137 851,730.5C 794.641,802.545 727.474,862.045 649.5,909C 648.167,909.667 646.833,909.667 645.5,909C 537.372,844.206 452.205,757.039 390,647.5C 353.071,579.379 331.071,506.712 324,429.5C 322.539,338.847 322.039,248.181 322.5,157.5 Z"/></g>
<g><path style="opacity:0.78" fill="#4b3c19" d="M 983.5,182.5 C 983.175,190.352 983.508,198.018 984.5,205.5C 984.631,206.376 984.298,207.043 983.5,207.5C 982.179,199.009 982.179,190.676 983.5,182.5 Z"/></g>
<g><path style="opacity:0.997" fill="#a78638" d="M 983.5,182.5 C 986.37,185.213 988.704,188.38 990.5,192C 987.812,196.207 985.812,200.707 984.5,205.5C 983.508,198.018 983.175,190.352 983.5,182.5 Z"/></g>
<g><path style="opacity:0.997" fill="#9d7e34" d="M 311.5,184.5 C 312.653,190.653 312.82,196.986 312,203.5C 310.149,199.797 308.315,196.13 306.5,192.5C 307.662,189.507 309.329,186.841 311.5,184.5 Z"/></g>
<g><path style="opacity:0.999" fill="#aa8939" d="M 291.5,191.5 C 300.327,194.677 305.66,201.01 307.5,210.5C 302.91,216.266 298.077,221.932 293,227.5C 283.678,242.469 279.012,258.802 279,276.5C 272.884,279.431 269.217,277.431 268,270.5C 264.85,252.121 268.183,235.121 278,219.5C 281.472,210.752 285.138,202.085 289,193.5C 289.995,192.934 290.828,192.267 291.5,191.5 Z"/></g>
<g><path style="opacity:0.999" fill="#aa8939" d="M 1002.5,190.5 C 1007.11,191.637 1009.94,194.637 1011,199.5C 1014.86,210.22 1019.53,220.553 1025,230.5C 1030.11,245.309 1030.78,260.309 1027,275.5C 1024.06,277.813 1020.89,278.146 1017.5,276.5C 1018.14,249.792 1008.47,227.792 988.5,210.5C 990.729,202.012 995.396,195.345 1002.5,190.5 Z"/></g>
<g><path style="opacity:0.78" fill="#4c3d1a" d="M 984.5,220.5 C 983.506,230.653 983.172,240.986 983.5,251.5C 982.177,240.993 982.177,230.326 983.5,219.5C 984.107,219.624 984.44,219.957 984.5,220.5 Z"/></g>
<g><path style="opacity:0.998" fill="#a98838" d="M 984.5,220.5 C 1002.53,235.038 1011.03,254.038 1010,277.5C 1009.28,278.451 1008.45,278.617 1007.5,278C 1000.53,268.202 992.526,259.368 983.5,251.5C 983.172,240.986 983.506,230.653 984.5,220.5 Z"/></g>
<g><path style="opacity:0.749" fill="#7a6228" d="M 310.5,222.5 C 310.56,221.957 310.893,221.624 311.5,221.5C 312.823,232.326 312.823,242.993 311.5,253.5C 311.828,242.986 311.494,232.653 310.5,222.5 Z"/></g>
<g><path style="opacity:0.999" fill="#aa8839" d="M 310.5,222.5 C 311.494,232.653 311.828,242.986 311.5,253.5C 304.465,260.368 297.965,267.701 292,275.5C 290.736,277.607 288.903,278.607 286.5,278.5C 285.79,255.925 293.79,237.259 310.5,222.5 Z"/></g>
<g><path style="opacity:1" fill="#070403" d="M 571.5,239.5 C 573.527,239.338 575.527,239.505 577.5,240C 580.203,243.038 583.203,245.705 586.5,248C 591.475,247.672 596.475,247.672 601.5,248C 606.423,248.6 609.923,251.1 612,255.5C 612.576,261.514 612.41,267.514 611.5,273.5C 611.388,278.11 613.055,281.943 616.5,285C 622.462,285.191 628.128,286.525 633.5,289C 638.641,295.674 638.641,302.341 633.5,309C 628.948,310.426 624.281,311.426 619.5,312C 617.152,312.346 615.319,313.513 614,315.5C 611.689,339.452 611.022,363.452 612,387.5C 612.606,390.548 614.106,393.048 616.5,395C 622.683,395.014 628.683,396.014 634.5,398C 642.978,407.002 641.978,415.002 631.5,422C 626.167,422.333 620.833,422.667 615.5,423C 613.462,424.236 612.295,426.069 612,428.5C 611.927,438.906 611.26,449.239 610,459.5C 609.097,460.701 607.931,461.535 606.5,462C 602.167,463 597.833,464 593.5,465C 567.82,464.374 542.153,464.707 516.5,466C 513.167,468 510.5,470.667 508.5,474C 498.858,477.506 490.525,475.506 483.5,468C 480.899,467.08 478.232,466.413 475.5,466C 456.953,465.07 438.453,465.57 420,467.5C 411.171,466.93 402.337,466.43 393.5,466C 387.306,465.139 383.806,461.639 383,455.5C 382.791,446.965 382.291,438.465 381.5,430C 381.095,429.055 380.428,428.388 379.5,428C 374.563,426.915 369.563,426.248 364.5,426C 355.012,422.944 351.512,416.444 354,406.5C 355.505,400.657 359.171,397.323 365,396.5C 368.815,397.374 372.649,397.54 376.5,397C 378.667,396.167 380.167,394.667 381,392.5C 381.099,367.855 381.099,343.188 381,318.5C 380.5,316.667 379.333,315.5 377.5,315C 372.833,314.667 368.167,314.333 363.5,314C 353.45,310.561 350.283,303.727 354,293.5C 355.122,291.376 356.622,289.543 358.5,288C 365.875,285.808 373.375,284.308 381,283.5C 381.903,273.118 383.236,262.785 385,252.5C 386.255,251.789 387.421,250.956 388.5,250C 395.199,249.639 401.865,248.972 408.5,248C 410.855,245.073 413.522,242.573 416.5,240.5C 423.516,245.006 431.183,247.84 439.5,249C 456.183,249.286 472.85,249.953 489.5,251C 491.866,252.233 494.366,253.066 497,253.5C 501.892,252.203 506.725,250.703 511.5,249C 525.5,248.667 539.5,248.333 553.5,248C 560.666,247.348 566.666,244.515 571.5,239.5 Z"/></g>
<g><path style="opacity:1" fill="#050302" d="M 878.5,240.5 C 883.489,240.318 886.655,242.651 888,247.5C 889.351,249.01 891.018,250.01 893,250.5C 899.879,249.066 906.712,249.232 913.5,251C 914.211,252.255 915.044,253.421 916,254.5C 916.709,262.02 916.543,269.52 915.5,277C 915.515,281.373 917.515,284.373 921.5,286C 927.386,285.96 933.053,286.96 938.5,289C 945.089,296.595 945.089,304.262 938.5,312C 932.361,314.013 926.027,315.013 919.5,315C 918.299,315.903 917.465,317.069 917,318.5C 917.096,335.539 916.929,352.539 916.5,369.5C 916.367,376.934 916.867,384.267 918,391.5C 918.833,392.333 919.667,393.167 920.5,394C 926.695,394.014 932.695,395.014 938.5,397C 946.057,404.758 946.39,412.758 939.5,421C 933.574,424.001 927.24,425.335 920.5,425C 918.714,425.785 917.214,426.951 916,428.5C 915.12,439.561 913.787,450.561 912,461.5C 905.958,464.809 899.458,466.142 892.5,465.5C 866.173,464.43 839.84,464.263 813.5,465C 810.537,466.961 807.871,469.294 805.5,472C 803.801,472.958 801.967,473.458 800,473.5C 792.364,470.559 784.697,467.559 777,464.5C 774.025,465.037 771.025,465.37 768,465.5C 744.509,464.734 721.009,464.234 697.5,464C 693.347,463.616 689.347,462.616 685.5,461C 684.874,460.25 684.374,459.416 684,458.5C 683.456,451.323 683.623,444.157 684.5,437C 685.48,426.642 680.813,422.309 670.5,424C 661.013,422.847 656.013,417.513 655.5,408C 656.207,401.235 659.873,397.235 666.5,396C 670.167,395.667 673.833,395.333 677.5,395C 680.034,394.484 682.2,393.317 684,391.5C 683.216,366.95 683.383,342.45 684.5,318C 683.48,315.974 681.813,314.641 679.5,314C 672.706,313.189 666.039,311.856 659.5,310C 656.124,307.935 654.791,304.935 655.5,301C 655.331,295.671 657.331,291.338 661.5,288C 666.75,286.826 672.084,286.159 677.5,286C 679.848,285.654 681.681,284.487 683,282.5C 683.703,275.313 683.536,268.147 682.5,261C 682.533,255.594 684.866,251.594 689.5,249C 696.513,248.746 703.513,248.746 710.5,249C 713.94,248.061 716.273,245.895 717.5,242.5C 718.607,241.978 719.774,241.645 721,241.5C 728.717,244.072 736.55,246.239 744.5,248C 756.839,248.212 769.173,248.212 781.5,248C 787.974,248.327 794.14,249.827 800,252.5C 803.952,250.61 808.118,249.443 812.5,249C 826.837,248.861 841.17,248.861 855.5,249C 864.192,248.607 871.859,245.773 878.5,240.5 Z"/></g>
<g><path style="opacity:0.998" fill="#a88738" d="M 1047.5,243.5 C 1051.51,243.334 1055.51,243.501 1059.5,244C 1061.36,245.418 1061.86,247.251 1061,249.5C 1056.95,251.887 1053.95,255.22 1052,259.5C 1049,268.856 1046,278.19 1043,287.5C 1040.56,291.45 1037.06,293.45 1032.5,293.5C 1031.66,283.859 1034.33,275.359 1040.5,268C 1038.24,267.956 1036.24,268.789 1034.5,270.5C 1034.17,269.167 1033.83,267.833 1033.5,266.5C 1034.11,261.178 1034.61,255.844 1035,250.5C 1038.73,247.223 1042.89,244.89 1047.5,243.5 Z"/></g>
<g><path style="opacity:0.999" fill="#a98738" d="M 236.5,244.5 C 246.192,242.786 254.692,245.119 262,251.5C 262.279,257.357 262.779,263.191 263.5,269C 263.167,269.833 262.833,270.667 262.5,271.5C 259.914,269.957 257.414,268.291 255,266.5C 256.435,269.653 258.435,272.653 261,275.5C 263.868,281.51 265.035,287.843 264.5,294.5C 259.936,294.45 256.436,292.45 254,288.5C 250.669,278.511 247.335,268.511 244,258.5C 240.933,254.724 237.766,251.057 234.5,247.5C 235.193,246.482 235.859,245.482 236.5,244.5 Z"/></g>
<g><path style="opacity:0.999" fill="#fcfcfc" d="M 567.5,251.5 C 568.822,251.33 569.989,251.663 571,252.5C 572.036,254.87 572.536,257.37 572.5,260C 572.156,313.15 571.656,366.317 571,419.5C 570.293,421.081 569.46,422.581 568.5,424C 565.833,424.667 563.167,425.333 560.5,426C 540.457,426.286 520.457,426.953 500.5,428C 498.993,426.527 498.326,424.693 498.5,422.5C 499.108,395.181 499.108,367.848 498.5,340.5C 498.222,315.435 499.056,290.435 501,265.5C 502.396,260.772 505.562,258.272 510.5,258C 523.5,257.667 536.5,257.333 549.5,257C 556.084,256.693 562.084,254.86 567.5,251.5 Z"/></g>
<g><path style="opacity:0.999" fill="#fcfcfc" d="M 724.5,252.5 C 731.398,252.392 738.064,253.558 744.5,256C 758.499,255.94 772.499,255.94 786.5,256C 788.492,256.574 789.992,257.741 791,259.5C 793.411,266.802 794.578,274.302 794.5,282C 793.115,330.065 792.115,378.065 791.5,426C 776.332,425.272 761.165,425.438 746,426.5C 740.127,425.906 734.294,425.072 728.5,424C 723.355,422.427 721.022,418.927 721.5,413.5C 722.605,388.01 722.605,362.51 721.5,337C 722.098,309.502 722.598,282.002 723,254.5C 723.717,253.956 724.217,253.289 724.5,252.5 Z"/></g>
<g><path style="opacity:0.999" fill="#fcfcfc" d="M 872.5,251.5 C 873.496,251.414 874.329,251.748 875,252.5C 876.625,309.174 876.292,365.841 874,422.5C 871.457,424.354 868.624,425.521 865.5,426C 851.324,426.69 837.157,426.524 823,425.5C 815.582,425.765 808.415,426.931 801.5,429C 799.972,427.352 799.305,425.352 799.5,423C 800.118,416.844 800.618,410.677 801,404.5C 801.067,357.15 801.734,309.816 803,262.5C 805.1,259.533 807.934,257.7 811.5,257C 827.167,256.667 842.833,256.333 858.5,256C 863.577,255.405 868.244,253.905 872.5,251.5 Z"/></g>
<g><path style="opacity:0.999" fill="#fcfcfc" d="M 423.5,253.5 C 429.208,254.678 434.874,256.178 440.5,258C 452.103,259.037 463.603,258.537 475,256.5C 479.771,257.201 484.271,258.701 488.5,261C 489.329,262.816 490.163,264.649 491,266.5C 492.674,305.835 492.507,345.168 490.5,384.5C 491.038,398.186 491.705,411.853 492.5,425.5C 492.347,428.273 490.847,429.607 488,429.5C 468.255,427.019 448.422,425.852 428.5,426C 425.898,425.117 423.731,423.617 422,421.5C 420.859,371.114 420.359,320.781 420.5,270.5C 420.667,265.833 420.833,261.167 421,256.5C 422.045,255.627 422.878,254.627 423.5,253.5 Z"/></g>
<g><path style="opacity:0.999" fill="#a88738" d="M 695.5,255.5 C 697.527,255.338 699.527,255.505 701.5,256C 702.428,256.388 703.095,257.055 703.5,258C 701.396,262.645 699.896,267.478 699,272.5C 698.056,328.85 698.389,385.183 700,441.5C 702.561,445.75 706.394,447.583 711.5,447C 733.858,447.117 756.191,447.784 778.5,449C 783.316,450.909 783.649,453.242 779.5,456C 752.5,456.667 725.5,456.667 698.5,456C 694.594,455.027 692.427,452.527 692,448.5C 691.911,439.758 691.244,431.091 690,422.5C 688.5,421 687,419.5 685.5,418C 680.25,416.826 674.916,416.159 669.5,416C 662.556,412.912 661.89,408.912 667.5,404C 672.53,403.552 677.53,402.886 682.5,402C 684.848,401.654 686.681,400.487 688,398.5C 688.958,393.877 689.625,389.21 690,384.5C 690.167,372.5 690.333,360.5 690.5,348.5C 690.649,335.742 690.149,323.075 689,310.5C 687.681,308.513 685.848,307.346 683.5,307C 677.461,306.663 671.461,305.997 665.5,305C 660.378,298.337 662.045,294.337 670.5,293C 674.167,292.667 677.833,292.333 681.5,292C 685.587,291.383 688.42,289.216 690,285.5C 690.213,277.124 690.879,268.79 692,260.5C 692.257,258.093 693.424,256.427 695.5,255.5 Z"/></g>
<g><path style="opacity:0.999" fill="#a98838" d="M 596.5,255.5 C 601.061,255.56 603.561,257.893 604,262.5C 604.333,270.5 604.667,278.5 605,286.5C 605.207,289.423 606.707,291.256 609.5,292C 614.167,292.333 618.833,292.667 623.5,293C 628.817,294.734 629.817,297.901 626.5,302.5C 625.5,303 624.5,303.5 623.5,304C 618.833,304.333 614.167,304.667 609.5,305C 607.667,305.5 606.5,306.667 606,308.5C 604.769,328.979 603.936,349.479 603.5,370C 603.325,379.593 604.158,389.093 606,398.5C 607.319,400.487 609.152,401.654 611.5,402C 616.5,402.333 621.5,402.667 626.5,403C 632.528,406.349 632.861,410.015 627.5,414C 621.5,414.333 615.5,414.667 609.5,415C 607.714,415.785 606.214,416.951 605,418.5C 604.044,429.838 603.044,441.171 602,452.5C 600.59,453.787 599.09,454.954 597.5,456C 574.991,456.238 552.491,456.738 530,457.5C 525.534,457.04 521.201,456.707 517,456.5C 513.461,453.724 513.961,451.891 518.5,451C 540.828,450.145 563.161,449.479 585.5,449C 589.066,448.3 591.9,446.467 594,443.5C 595.372,403.529 596.206,363.529 596.5,323.5C 596.396,304.156 595.896,284.823 595,265.5C 594.5,263.5 594,261.5 593.5,259.5C 593.787,257.557 594.787,256.223 596.5,255.5 Z"/></g>
<g><path style="opacity:0.996" fill="#fcfcfc" d="M 579.5,256.5 C 581.582,256.472 583.416,257.139 585,258.5C 586.333,261.167 587.667,263.833 589,266.5C 589.667,320.833 589.667,375.167 589,429.5C 588.586,429.957 588.086,430.291 587.5,430.5C 582.948,427.733 580.115,423.733 579,418.5C 578.175,364.459 578.342,310.459 579.5,256.5 Z"/></g>
<g><path style="opacity:0.999" fill="#a88738" d="M 899.5,257.5 C 907.178,256.676 910.845,260.176 910.5,268C 905.602,287.098 912.935,295.765 932.5,294C 938.171,298.614 937.838,302.614 931.5,306C 926.167,306.333 920.833,306.667 915.5,307C 913.714,307.785 912.214,308.951 911,310.5C 909.567,337.486 909.234,364.486 910,391.5C 909.98,395.462 911.48,398.629 914.5,401C 921.327,401.037 927.994,402.037 934.5,404C 937.893,408.964 936.893,412.631 931.5,415C 925.5,415.333 919.5,415.667 913.5,416C 912.584,416.374 911.75,416.874 911,417.5C 909.27,429.116 907.603,440.783 906,452.5C 905.167,453.333 904.333,454.167 903.5,455C 889.034,456.103 874.534,456.603 860,456.5C 845.136,456.593 830.303,456.093 815.5,455C 814.483,453.951 814.316,452.784 815,451.5C 816.648,450.283 818.481,449.45 820.5,449C 845.177,449.949 869.844,449.615 894.5,448C 896.049,446.786 897.215,445.286 898,443.5C 899.254,430.889 899.921,418.223 900,405.5C 900.667,360.167 900.667,314.833 900,269.5C 899.066,266.864 898.232,264.197 897.5,261.5C 897.752,259.927 898.418,258.594 899.5,257.5 Z"/></g>
<g><path style="opacity:0.999" fill="#a78638" d="M 394.5,258.5 C 397.261,257.915 398.927,258.915 399.5,261.5C 398.67,263.828 397.837,266.162 397,268.5C 396.796,312.508 396.296,356.508 395.5,400.5C 396.019,415.913 397.185,431.246 399,446.5C 400.419,447.46 401.919,448.293 403.5,449C 422.992,450.592 442.492,450.758 462,449.5C 468.195,449.651 474.362,450.151 480.5,451C 483.167,453 483.167,455 480.5,457C 452.167,457.667 423.833,457.667 395.5,457C 393,455.833 391.167,454 390,451.5C 389.952,441.068 389.286,430.735 388,420.5C 387.25,419.874 386.416,419.374 385.5,419C 380.5,418.667 375.5,418.333 370.5,418C 361.707,415.647 360.374,411.314 366.5,405C 372.77,403.848 379.103,403.182 385.5,403C 386.333,402.167 387.167,401.333 388,400.5C 389.49,371.849 389.823,343.182 389,314.5C 388.484,311.966 387.317,309.8 385.5,308C 379.5,307.667 373.5,307.333 367.5,307C 358.539,303.496 358.206,299.163 366.5,294C 371.5,293.667 376.5,293.333 381.5,293C 386.218,291.613 388.718,288.446 389,283.5C 389.333,277.833 389.667,272.167 390,266.5C 390.738,263.352 392.238,260.685 394.5,258.5 Z"/></g>
<g><path style="opacity:0.997" fill="#fbfbfb" d="M 884.5,257.5 C 886.903,257.393 888.736,258.393 890,260.5C 891.608,263.382 892.941,266.382 894,269.5C 893.969,307.84 894.135,346.173 894.5,384.5C 893.882,399.496 893.382,414.496 893,429.5C 892.439,430.022 891.772,430.355 891,430.5C 887.29,428.456 884.624,425.456 883,421.5C 882.675,371.822 882.509,322.155 882.5,272.5C 882.667,268.167 882.833,263.833 883,259.5C 883.717,258.956 884.217,258.289 884.5,257.5 Z"/></g>
<g><path style="opacity:0.999" fill="#f8f8f8" d="M 410.5,258.5 C 412.252,258.418 413.252,259.251 413.5,261C 413.472,313.266 413.472,365.599 413.5,418C 413.633,423.933 411.966,429.267 408.5,434C 406.702,435.505 404.868,435.672 403,434.5C 402.833,428 402.667,421.5 402.5,415C 402.225,366.17 402.725,317.336 404,268.5C 404.949,264.243 407.115,260.909 410.5,258.5 Z"/></g>
<g><path style="opacity:0.998" fill="#f8f8f8" d="M 710.5,260.5 C 711.5,260.5 712.5,260.5 713.5,260.5C 714.322,275.639 714.989,290.806 715.5,306C 714.732,345.161 714.232,384.328 714,423.5C 712.8,427.246 710.634,430.246 707.5,432.5C 705.495,431.663 704.495,430.163 704.5,428C 704.545,375.894 704.711,323.727 705,271.5C 705.787,267.259 707.621,263.592 710.5,260.5 Z"/></g>
<g><path style="opacity:0.78" fill="#4b3c19" d="M 984.5,268.5 C 983.508,275.982 983.175,283.648 983.5,291.5C 982.18,283.657 982.18,275.657 983.5,267.5C 984.107,267.624 984.44,267.957 984.5,268.5 Z"/></g>
<g><path style="opacity:0.998" fill="#a68637" d="M 984.5,268.5 C 990.938,276.379 994.938,285.379 996.5,295.5C 991.835,294.922 987.501,293.589 983.5,291.5C 983.175,283.648 983.508,275.982 984.5,268.5 Z"/></g>
<g><path style="opacity:1" fill="#a38336" d="M 311.5,270.5 C 312.492,277.982 312.825,285.648 312.5,293.5C 308.557,294.486 304.557,295.152 300.5,295.5C 301.727,286.051 305.393,277.717 311.5,270.5 Z"/></g>
<g><path style="opacity:0.999" fill="#aa8839" d="M 275.5,285.5 C 277.167,285.5 278.833,285.5 280.5,285.5C 280.292,287.92 280.626,290.253 281.5,292.5C 284.447,293.321 287.447,293.821 290.5,294C 291.357,294.689 292.023,295.522 292.5,296.5C 283.165,310.499 274.332,324.832 266,339.5C 262.66,345.177 260.16,351.177 258.5,357.5C 258.833,358.5 259.167,359.5 259.5,360.5C 264.019,354.327 270.019,352.327 277.5,354.5C 276.626,356.747 276.292,359.08 276.5,361.5C 271.036,362.565 266.036,364.732 261.5,368C 249.642,378.184 240.476,390.351 234,404.5C 230.5,407.333 227,410.167 223.5,413C 221.065,410.285 219.398,406.785 218.5,402.5C 225.465,393.234 230.298,382.901 233,371.5C 234.229,362.919 233.395,354.586 230.5,346.5C 224.878,342.613 224.212,338.113 228.5,333C 230.167,332.333 231.833,332.333 233.5,333C 235.547,336.808 237.88,340.475 240.5,344C 242.701,344.825 244.534,344.325 246,342.5C 257.405,324.357 267.239,305.357 275.5,285.5 Z"/></g>
<g><path style="opacity:0.999" fill="#aa8839" d="M 1016.5,284.5 C 1018.72,284.178 1020.56,284.845 1022,286.5C 1029.98,306.626 1040.14,325.459 1052.5,343C 1053.83,343.667 1055.17,343.667 1056.5,343C 1058.83,339.333 1061.17,335.667 1063.5,332C 1068.87,331.079 1071.37,333.246 1071,338.5C 1069.17,340.333 1067.33,342.167 1065.5,344C 1065.96,344.414 1066.29,344.914 1066.5,345.5C 1061.44,357.821 1061.6,370.154 1067,382.5C 1070.46,389.263 1074.3,395.763 1078.5,402C 1077.14,405.09 1075.97,408.256 1075,411.5C 1074.28,412.451 1073.45,412.617 1072.5,412C 1069.28,408.483 1065.78,405.316 1062,402.5C 1055.59,388.511 1046.43,376.677 1034.5,367C 1030.31,364.155 1025.81,361.988 1021,360.5C 1020.43,357.832 1019.93,355.166 1019.5,352.5C 1027.13,351.514 1032.96,354.18 1037,360.5C 1037.99,359.57 1038.49,358.404 1038.5,357C 1029.53,335.883 1018.36,316.05 1005,297.5C 1004.13,295.112 1004.97,293.612 1007.5,293C 1010.15,292.503 1012.81,292.336 1015.5,292.5C 1015.28,289.721 1015.61,287.054 1016.5,284.5 Z"/></g>
<g><path style="opacity:0.78" fill="#4c3d19" d="M 983.5,299.5 C 983.205,301.735 983.539,303.735 984.5,305.5C 984.217,306.289 983.717,306.956 983,307.5C 982.199,304.633 982.366,301.966 983.5,299.5 Z"/></g>
<g><path style="opacity:0.991" fill="#a48437" d="M 983.5,299.5 C 985.09,299.628 986.423,300.295 987.5,301.5C 986.476,302.852 985.476,304.185 984.5,305.5C 983.539,303.735 983.205,301.735 983.5,299.5 Z"/></g>
<g><path style="opacity:0.749" fill="#7f662a" d="M 310.5,300.5 C 313.338,305.82 312.672,306.32 308.5,302C 309.416,301.722 310.082,301.222 310.5,300.5 Z"/></g>
<g><path style="opacity:1" fill="#060606" d="M 751.5,301.5 C 763.789,299.759 773.956,303.426 782,312.5C 784.877,321.465 783.877,329.799 779,337.5C 776,340.167 773,342.833 770,345.5C 769.333,348.167 769.333,350.833 770,353.5C 774.887,362.115 780.387,370.282 786.5,378C 784.254,381.643 781.254,382.31 777.5,380C 770.298,371.102 763.965,361.602 758.5,351.5C 756.994,350.253 755.494,350.253 754,351.5C 752.516,357.765 752.182,364.098 753,370.5C 756.112,373.233 757.779,376.567 758,380.5C 751.256,381.479 744.422,381.812 737.5,381.5C 737.353,377.464 738.853,374.131 742,371.5C 742.307,356.159 742.807,340.826 743.5,325.5C 744.462,317.321 741.795,310.654 735.5,305.5C 735.833,304.833 736.167,304.167 736.5,303.5C 741.651,302.833 746.651,302.166 751.5,301.5 Z"/></g>
<g><path style="opacity:1" fill="#020202" d="M 837.5,301.5 C 840.183,301.663 841.85,302.996 842.5,305.5C 840.669,309.162 838.836,312.828 837,316.5C 836.333,334.5 836.333,352.5 837,370.5C 838.77,373.042 840.27,375.709 841.5,378.5C 841.392,379.442 841.059,380.275 840.5,381C 833.5,381.667 826.5,381.667 819.5,381C 818.483,379.951 818.316,378.784 819,377.5C 820.29,375.208 821.957,373.208 824,371.5C 825.834,351.848 825.834,332.181 824,312.5C 822.743,310.487 821.909,308.321 821.5,306C 821.755,304.674 822.422,303.674 823.5,303C 828.351,302.826 833.018,302.326 837.5,301.5 Z"/></g>
<g><path style="opacity:1" fill="#060606" d="M 438.5,302.5 C 443.312,302.073 447.478,303.406 451,306.5C 450.663,310.047 449.496,313.381 447.5,316.5C 450.301,327.737 453.801,338.737 458,349.5C 459.015,352.21 460.515,354.543 462.5,356.5C 464.868,355.631 466.368,353.965 467,351.5C 469.177,341.792 471.51,332.125 474,322.5C 474.667,319.833 474.667,317.167 474,314.5C 470.071,304.987 473.237,301.82 483.5,305C 485.18,305.347 486.18,306.347 486.5,308C 483.562,312.807 481.395,317.974 480,323.5C 475.578,340.022 471.078,356.522 466.5,373C 462.121,382.979 457.621,382.812 453,372.5C 447.729,353.021 441.062,334.021 433,315.5C 430.993,312.664 428.826,309.997 426.5,307.5C 426.529,305.971 427.196,304.804 428.5,304C 432.025,303.821 435.359,303.321 438.5,302.5 Z"/></g>
<g><path style="opacity:1" fill="#060606" d="M 534.5,302.5 C 537.518,302.335 540.518,302.502 543.5,303C 545.965,306.22 547.965,309.72 549.5,313.5C 549.42,315.33 548.587,316.663 547,317.5C 543.569,315.739 540.403,313.572 537.5,311C 532.788,309.557 528.955,310.723 526,314.5C 525.333,320.167 525.333,325.833 526,331.5C 527.664,336.038 530.831,337.538 535.5,336C 537.699,334.303 540.032,332.803 542.5,331.5C 546.472,335.92 546.472,340.42 542.5,345C 541.167,345.667 539.833,345.667 538.5,345C 536.319,343.16 533.819,341.993 531,341.5C 529.289,341.439 527.956,342.106 527,343.5C 524.083,351.669 523.75,360.003 526,368.5C 526.093,371.007 526.926,373.174 528.5,375C 533.5,375.667 538.5,375.667 543.5,375C 546.648,372.891 548.981,370.058 550.5,366.5C 551.365,365.417 552.365,365.251 553.5,366C 557.363,370.504 557.196,375.004 553,379.5C 551.681,381.487 549.848,382.654 547.5,383C 535.818,382.952 524.151,382.285 512.5,381C 511.643,380.311 510.977,379.478 510.5,378.5C 512,375.5 513.5,372.5 515,369.5C 515.667,351.5 515.667,333.5 515,315.5C 512.757,312.926 510.924,310.092 509.5,307C 509.645,306.228 509.978,305.561 510.5,305C 518.644,304.106 526.644,303.273 534.5,302.5 Z"/></g>
<g><path style="opacity:0.998" fill="#a78638" d="M 992.5,306.5 C 995.518,306.335 998.518,306.502 1001.5,307C 1004.83,309 1007.5,311.667 1009.5,315C 1004.17,315.333 998.833,315.667 993.5,316C 990.136,317.099 986.97,318.599 984,320.5C 983.333,317.167 983.333,313.833 984,310.5C 986.876,309.052 989.709,307.719 992.5,306.5 Z"/></g>
<g><path style="opacity:0.999" fill="#a58437" d="M 294.5,307.5 C 300.48,306.89 306.147,307.89 311.5,310.5C 312.833,313.833 312.833,317.167 311.5,320.5C 303.973,316.361 295.973,314.861 287.5,316C 289.266,312.596 291.599,309.762 294.5,307.5 Z"/></g>
<g><path style="opacity:0.998" fill="#fcfcfc" d="M 757.5,308.5 C 767.731,308.731 773.065,314.064 773.5,324.5C 773.017,335.487 767.35,340.654 756.5,340C 755.667,339.167 754.833,338.333 754,337.5C 753.667,328.821 754,320.154 755,311.5C 756.045,310.627 756.878,309.627 757.5,308.5 Z"/></g>
<g><path style="opacity:0.999" fill="#a88738" d="M 208.5,311.5 C 217.26,311.106 223.26,314.939 226.5,323C 224.228,325.054 222.061,327.221 220,329.5C 219.827,333.541 219.327,337.541 218.5,341.5C 205.76,345.293 198.093,340.626 195.5,327.5C 196.554,319.341 200.887,314.008 208.5,311.5 Z"/></g>
<g><path style="opacity:0.999" fill="#a98838" d="M 1079.5,311.5 C 1093.85,312.888 1099.35,320.555 1096,334.5C 1091.21,342.992 1084.71,344.658 1076.5,339.5C 1077.59,336.227 1077.75,332.894 1077,329.5C 1075.14,326.642 1072.97,324.142 1070.5,322C 1072.63,317.705 1075.63,314.205 1079.5,311.5 Z"/></g>
<g><path style="opacity:0.999" fill="#a98838" d="M 1120.5,342.5 C 1122,342.415 1123,343.081 1123.5,344.5C 1116.48,353.866 1114.65,364.199 1118,375.5C 1119.87,381.447 1121.54,387.447 1123,393.5C 1123.67,398.833 1123.67,404.167 1123,409.5C 1120.33,412.167 1117.67,414.833 1115,417.5C 1110.1,406.685 1104.43,396.352 1098,386.5C 1095.22,366.389 1102.72,351.723 1120.5,342.5 Z"/></g>
<g><path style="opacity:0.999" fill="#aa8839" d="M 173.5,343.5 C 187.752,347.929 196.252,357.596 199,372.5C 199.717,378.225 199.384,383.891 198,389.5C 197,390.5 196,391.5 195,392.5C 190.5,400.833 186,409.167 181.5,417.5C 178.849,415.35 176.349,413.017 174,410.5C 173.333,404.5 173.333,398.5 174,392.5C 177.503,383.319 179.67,373.819 180.5,364C 180.287,360.358 179.453,356.858 178,353.5C 175.676,350.52 174.176,347.187 173.5,343.5 Z"/></g>
<g><path style="opacity:0.999" fill="#aa8839" d="M 293.5,347.5 C 307.74,348.216 312.573,355.216 308,368.5C 298.351,377.407 290.351,376.073 284,364.5C 283.008,356.483 286.174,350.816 293.5,347.5 Z"/></g>
<g><path style="opacity:0.999" fill="#aa8839" d="M 996.5,347.5 C 1008.65,347.485 1013.82,353.485 1012,365.5C 1007,373.878 1000.17,375.712 991.5,371C 983.616,360.973 985.283,353.14 996.5,347.5 Z"/></g>
<g><path style="opacity:0.998" fill="#a98738" d="M 271.5,369.5 C 273.924,369.192 276.257,369.526 278.5,370.5C 280.482,374.146 283.149,377.146 286.5,379.5C 269.892,387.271 255.392,397.938 243,411.5C 242.333,408.5 242.333,405.5 243,402.5C 248.817,388.12 258.317,377.12 271.5,369.5 Z"/></g>
<g><path style="opacity:0.998" fill="#a98838" d="M 276.5,393.5 C 277.833,393.5 279.167,393.5 280.5,393.5C 280.39,402.849 280.723,412.182 281.5,421.5C 281.586,429.579 279.586,437.079 275.5,444C 268.376,447.98 261.876,452.814 256,458.5C 253.495,455.181 252.495,451.514 253,447.5C 258.94,433.783 265.774,420.617 273.5,408C 272.833,407.333 272.167,407.333 271.5,408C 261.727,417.236 253.394,427.569 246.5,439C 245.256,439.456 244.423,438.956 244,437.5C 242.756,433.356 241.589,429.189 240.5,425C 249.939,411.383 261.939,400.883 276.5,393.5 Z"/></g>
<g><path style="opacity:0.999" fill="#a98838" d="M 1016.5,392.5 C 1023.13,393.983 1029.13,396.817 1034.5,401C 1042.37,407.205 1049.21,414.372 1055,422.5C 1055.4,428.584 1054.06,434.251 1051,439.5C 1043.98,428.142 1035.81,417.642 1026.5,408C 1025.58,407.626 1024.75,407.126 1024,406.5C 1023.83,406.833 1023.67,407.167 1023.5,407.5C 1031.11,420.395 1037.95,433.729 1044,447.5C 1044.21,451.113 1043.21,454.446 1041,457.5C 1035.11,452.613 1028.95,448.113 1022.5,444C 1017.98,437.609 1015.31,430.442 1014.5,422.5C 1015.99,412.56 1016.65,402.56 1016.5,392.5 Z"/></g>
<g><path style="opacity:0.999" fill="#aa8939" d="M 200.5,396.5 C 204.95,396.142 208.45,397.808 211,401.5C 215.394,408.048 216.727,415.048 215,422.5C 209.834,429.495 205.167,436.828 201,444.5C 196.66,437.152 191.827,430.152 186.5,423.5C 189.668,413.616 194.335,404.616 200.5,396.5 Z"/></g>
<g><path style="opacity:0.999" fill="#aa8939" d="M 1091.5,395.5 C 1095.15,395.622 1097.98,397.288 1100,400.5C 1104.23,407.352 1107.4,414.685 1109.5,422.5C 1105.08,429.67 1100.42,436.67 1095.5,443.5C 1091.17,435.496 1086.33,427.829 1081,420.5C 1080.14,410.227 1083.64,401.893 1091.5,395.5 Z"/></g>
<g><path style="opacity:0.999" fill="#aa8839" d="M 1061.5,411.5 C 1081.61,428.519 1094.11,450.186 1099,476.5C 1103.14,498.026 1101.97,519.192 1095.5,540C 1094.21,540.49 1092.87,540.657 1091.5,540.5C 1088.89,521.27 1085.05,502.27 1080,483.5C 1078.12,476.515 1075.45,469.848 1072,463.5C 1073.57,470.706 1074.91,478.04 1076,485.5C 1076.67,493.5 1076.67,501.5 1076,509.5C 1070.66,492.516 1061.66,477.849 1049,465.5C 1048.3,460.277 1049.96,455.944 1054,452.5C 1055.72,449.326 1057.06,445.993 1058,442.5C 1059.16,432.876 1059.82,423.209 1060,413.5C 1060.72,412.956 1061.22,412.289 1061.5,411.5 Z"/></g>
<g><path style="opacity:0.999" fill="#aa8939" d="M 233.5,412.5 C 235.017,412.511 236.184,413.177 237,414.5C 236.073,424.57 236.739,434.57 239,444.5C 240.31,449.124 242.644,453.124 246,456.5C 247.368,459.738 247.701,463.072 247,466.5C 235.027,478.77 226.36,493.103 221,509.5C 219.307,494.474 220.807,479.807 225.5,465.5C 225.154,464.304 224.654,464.304 224,465.5C 219.673,474.814 216.34,484.481 214,494.5C 210.562,509.733 207.729,525.066 205.5,540.5C 203.533,540.739 201.699,540.406 200,539.5C 189.262,497.53 196.595,459.197 222,424.5C 226.037,420.631 229.87,416.631 233.5,412.5 Z"/></g>
<g><path style="opacity:0.999" fill="#a98838" d="M 1134.5,412.5 C 1135.59,412.62 1136.25,413.287 1136.5,414.5C 1133.56,422.551 1132.72,430.885 1134,439.5C 1142.44,475.452 1133.1,505.785 1106,530.5C 1106.12,519.515 1106.45,508.515 1107,497.5C 1109.28,492.613 1111.28,487.613 1113,482.5C 1113.33,474.347 1114.5,466.347 1116.5,458.5C 1116.15,457.304 1115.65,457.304 1115,458.5C 1111.02,465.431 1108.02,472.764 1106,480.5C 1103.8,471.526 1102.14,462.526 1101,453.5C 1109.1,437.246 1120.26,423.58 1134.5,412.5 Z"/></g>
<g><path style="opacity:0.999" fill="#aa8839" d="M 160.5,413.5 C 166.936,416.413 172.436,420.746 177,426.5C 184.507,435.012 190.84,444.346 196,454.5C 194.513,463.464 192.847,472.464 191,481.5C 188.589,473.937 185.589,466.603 182,459.5C 181.346,458.304 180.846,458.304 180.5,459.5C 182.32,467.387 183.486,475.387 184,483.5C 185.271,487.979 186.938,492.312 189,496.5C 189.563,508.204 190.23,519.871 191,531.5C 170.551,513.595 160.051,490.928 159.5,463.5C 160.83,452.512 162.163,441.512 163.5,430.5C 163.534,424.618 162.534,418.951 160.5,413.5 Z"/></g>
<g><path style="opacity:0.998" fill="#f5f5f5" d="M 573.5,429.5 C 576.652,428.959 579.152,429.959 581,432.5C 582.632,434.933 584.132,437.433 585.5,440C 585.241,441.261 584.574,442.261 583.5,443C 558.816,443.426 534.149,443.759 509.5,444C 504.291,440.791 504.291,437.791 509.5,435C 525.464,435.034 541.464,434.701 557.5,434C 563.183,433.306 568.516,431.806 573.5,429.5 Z"/></g>
<g><path style="opacity:0.999" fill="#f3f3f3" d="M 717.5,430.5 C 724.599,430.461 731.599,431.294 738.5,433C 753.5,433.333 768.5,433.667 783.5,434C 788.614,435.38 789.947,438.213 787.5,442.5C 782.827,443.669 778.16,443.503 773.5,442C 754.167,441.667 734.833,441.333 715.5,441C 714.106,440.044 713.439,438.711 713.5,437C 714.205,434.458 715.539,432.292 717.5,430.5 Z"/></g>
<g><path style="opacity:0.999" fill="#fcfcfc" d="M 874.5,430.5 C 882.602,430.608 887.269,434.608 888.5,442.5C 861.825,442.833 835.158,442.5 808.5,441.5C 807.515,439.902 807.349,438.235 808,436.5C 809.945,435.137 812.112,434.303 814.5,434C 828.164,434.091 841.831,434.091 855.5,434C 862.123,433.676 868.456,432.51 874.5,430.5 Z"/></g>
<g><path style="opacity:0.998" fill="#f2f2f2" d="M 417.5,430.5 C 420.928,430.547 423.928,431.713 426.5,434C 444.867,434.098 463.2,434.764 481.5,436C 486.979,436.952 488.313,439.619 485.5,444C 461.52,443.75 437.52,443.417 413.5,443C 411.675,441.534 411.175,439.701 412,437.5C 412.967,434.379 414.8,432.046 417.5,430.5 Z"/></g>
<g><path style="opacity:0.999" fill="#aa8839" d="M 297.5,437.5 C 299.199,437.34 300.866,437.506 302.5,438C 303.022,438.561 303.355,439.228 303.5,440C 291.891,457.152 284.391,475.985 281,496.5C 275.147,518.504 261.98,534.17 241.5,543.5C 247.506,518.546 258.173,495.546 273.5,474.5C 273.333,474.167 273.167,473.833 273,473.5C 256.196,491.964 240.53,511.298 226,531.5C 223.188,518.736 225.188,506.736 232,495.5C 240.01,483.482 249.51,472.648 260.5,463C 272.462,453.856 284.795,445.356 297.5,437.5 Z"/></g>
<g><path style="opacity:0.999" fill="#aa8839" d="M 994.5,436.5 C 1016.83,446.295 1036.33,460.295 1053,478.5C 1062.76,489.011 1069.09,501.344 1072,515.5C 1072.97,520.781 1072.31,525.781 1070,530.5C 1055.44,509.405 1039.44,489.405 1022,470.5C 1036.1,491.367 1047.1,514.034 1055,538.5C 1055.78,539.944 1055.61,541.277 1054.5,542.5C 1034.88,532.981 1022.05,517.647 1016,496.5C 1012.98,476.103 1005.65,457.436 994,440.5C 993.421,439.072 993.588,437.738 994.5,436.5 Z"/></g>
<g><path style="opacity:0.998" fill="#a88738" d="M 795.5,443.5 C 804.025,444.195 808.192,448.862 808,457.5C 807.705,459.931 806.538,461.764 804.5,463C 794.599,464.768 790.099,460.601 791,450.5C 792.012,447.798 793.512,445.465 795.5,443.5 Z"/></g>
<g><path style="opacity:0.998" fill="#a98838" d="M 496.5,445.5 C 506.42,447.246 509.92,452.913 507,462.5C 502.486,468.747 497.486,469.08 492,463.5C 491.333,459.167 491.333,454.833 492,450.5C 493.707,448.963 495.207,447.296 496.5,445.5 Z"/></g>
<g><path style="opacity:0.998" fill="#aa8839" d="M 982.5,467.5 C 988.931,467.091 995.098,468.091 1001,470.5C 1003,475.167 1005,479.833 1007,484.5C 1010.24,497.543 1014.24,510.21 1019,522.5C 1013.1,518.54 1007.77,513.874 1003,508.5C 995.716,498.215 988.05,488.215 980,478.5C 975.906,473.383 976.739,469.716 982.5,467.5 Z"/></g>
<g><path style="opacity:0.999" fill="#a98838" d="M 301.5,468.5 C 307.245,468.211 312.912,468.711 318.5,470C 319.554,471.388 319.72,472.888 319,474.5C 317.587,477.661 315.92,480.661 314,483.5C 307.286,491.212 300.953,499.212 295,507.5C 289.949,513.054 284.449,518.054 278.5,522.5C 278.167,522.167 277.833,521.833 277.5,521.5C 283.186,505.915 288.686,490.249 294,474.5C 295.354,470.924 297.854,468.924 301.5,468.5 Z"/></g>
<g><path style="opacity:0.999" fill="#aa8839" d="M 136.5,489.5 C 144.196,489.354 151.862,489.687 159.5,490.5C 164.443,512.054 175.276,530.054 192,544.5C 192.499,548.486 192.666,552.486 192.5,556.5C 183.074,555.62 175.074,551.787 168.5,545C 166.707,542.205 164.54,539.705 162,537.5C 155.586,525.671 148.92,514.004 142,502.5C 139.333,500.5 136.667,498.5 134,496.5C 132.916,493.341 133.75,491.008 136.5,489.5 Z"/></g>
<g><path style="opacity:0.999" fill="#aa8839" d="M 1142.5,488.5 C 1148.18,488.334 1153.84,488.501 1159.5,489C 1162.8,490.007 1163.97,492.173 1163,495.5C 1160.51,497.743 1157.85,499.743 1155,501.5C 1148.49,511.843 1142.49,522.51 1137,533.5C 1131.11,542.534 1123.27,549.367 1113.5,554C 1110.57,554.953 1107.57,555.453 1104.5,555.5C 1104.33,551.486 1104.5,547.486 1105,543.5C 1120.96,529.027 1131.79,511.36 1137.5,490.5C 1139.29,489.83 1140.96,489.163 1142.5,488.5 Z"/></g>
<g><path style="opacity:0.795" fill="#3d3114" d="M 1080.5,519.5 C 1079.83,520.833 1079.17,522.167 1078.5,523.5C 1078.33,519.154 1078.5,514.821 1079,510.5C 1079.7,513.478 1080.2,516.478 1080.5,519.5 Z"/></g>
<g><path style="opacity:0.999" fill="#a98838" d="M 216.5,513.5 C 217.313,522.681 218.147,532.015 219,541.5C 219.263,546.017 220.263,550.351 222,554.5C 222.893,555.711 223.726,555.711 224.5,554.5C 227.058,547.718 229.891,541.051 233,534.5C 230.796,545.044 228.796,555.711 227,566.5C 225.695,573.126 225.362,579.792 226,586.5C 231.353,578.137 237.853,570.637 245.5,564C 248.005,562.247 250.671,560.747 253.5,559.5C 254.791,563.496 256.457,567.329 258.5,571C 233.872,582.938 225.205,602.271 232.5,629C 227.199,638.766 222.866,648.933 219.5,659.5C 217.851,658.352 216.351,657.019 215,655.5C 213.103,632.49 201.937,615.99 181.5,606C 180.941,605.275 180.608,604.442 180.5,603.5C 181.108,600.855 181.608,598.188 182,595.5C 190.655,598.409 198.488,602.743 205.5,608.5C 205.982,589.535 203.649,570.868 198.5,552.5C 198.667,551.833 198.833,551.167 199,550.5C 201.075,554.579 203.908,558.079 207.5,561C 208.483,561.591 209.15,561.257 209.5,560C 214.024,544.83 216.358,529.33 216.5,513.5 Z"/></g>
<g><path style="opacity:0.999" fill="#a98838" d="M 1080.5,519.5 C 1080.98,533.168 1083.31,546.502 1087.5,559.5C 1088,560.521 1088.67,560.688 1089.5,560C 1093.09,557.079 1095.92,553.579 1098,549.5C 1095.3,563.364 1092.96,577.364 1091,591.5C 1090.33,597.167 1090.33,602.833 1091,608.5C 1097.25,602.794 1104.41,598.794 1112.5,596.5C 1112.26,599.579 1112.59,602.579 1113.5,605.5C 1093.94,615.932 1083.44,632.265 1082,654.5C 1080.65,656.019 1079.15,657.352 1077.5,658.5C 1074.16,648.821 1069.99,639.488 1065,630.5C 1066.23,621.237 1066.56,611.904 1066,602.5C 1062.43,587.09 1053.26,576.424 1038.5,570.5C 1040.65,566.78 1041.99,562.78 1042.5,558.5C 1054.48,564.81 1063.81,573.81 1070.5,585.5C 1070.65,568.714 1068.32,552.214 1063.5,536C 1063.67,535.5 1063.83,535 1064,534.5C 1067.28,541.384 1070.28,548.384 1073,555.5C 1075.09,553.255 1076.42,550.588 1077,547.5C 1078.22,539.547 1078.72,531.547 1078.5,523.5C 1079.17,522.167 1079.83,520.833 1080.5,519.5 Z"/></g>
<g><path style="opacity:1" fill="#060504" d="M 539.5,535.5 C 544.048,537.107 548.381,539.274 552.5,542C 556.42,543.313 560.42,544.313 564.5,545C 581.694,545.606 598.86,545.106 616,543.5C 625.634,542.97 634.634,544.97 643,549.5C 645.251,547.623 647.751,546.123 650.5,545C 667.005,544.443 683.505,544.61 700,545.5C 714.732,546.459 728.732,543.792 742,537.5C 747.878,538.341 753.378,540.174 758.5,543C 765.167,543.333 771.833,543.667 778.5,544C 783.26,545.096 786.427,547.929 788,552.5C 788.164,558.861 787.664,565.194 786.5,571.5C 785.947,575.897 787.614,579.063 791.5,581C 797.581,581.138 803.581,581.804 809.5,583C 815.053,587.618 816.886,593.451 815,600.5C 814.215,602.286 813.049,603.786 811.5,605C 805.038,607.475 798.371,609.141 791.5,610C 790.299,610.903 789.465,612.069 789,613.5C 787.382,638.459 787.048,663.459 788,688.5C 788.903,689.701 790.069,690.535 791.5,691C 799.69,690.46 807.357,692.127 814.5,696C 819.865,703.166 819.532,710.166 813.5,717C 806.461,719.8 799.128,721.467 791.5,722C 788.849,726.397 787.516,731.23 787.5,736.5C 789.247,743.69 788.747,750.69 786,757.5C 785.167,758.333 784.333,759.167 783.5,760C 780.107,760.798 776.774,761.798 773.5,763C 735.798,764.335 698.131,765.002 660.5,765C 656.221,766.473 652.221,768.473 648.5,771C 640.897,771.541 634.231,769.207 628.5,764C 613.827,764.434 599.161,764.267 584.5,763.5C 571.874,764.943 559.208,765.943 546.5,766.5C 539.837,765.24 533.17,765.24 526.5,766.5C 519.445,766.384 512.778,764.884 506.5,762C 505.874,761.25 505.374,760.416 505,759.5C 504.383,748.079 503.383,736.745 502,725.5C 501.097,724.299 499.931,723.465 498.5,723C 493.5,722.667 488.5,722.333 483.5,722C 472.962,720.102 469.129,713.935 472,703.5C 474.222,699.612 477.388,696.779 481.5,695C 487.5,694.667 493.5,694.333 499.5,694C 500.667,693.5 501.5,692.667 502,691.5C 502.667,665.833 502.667,640.167 502,614.5C 501.25,613.874 500.416,613.374 499.5,613C 490.822,612.943 482.489,611.277 474.5,608C 472.951,606.786 471.785,605.286 471,603.5C 468.105,594.348 470.938,587.848 479.5,584C 486.821,582.952 494.155,582.119 501.5,581.5C 502.192,580.975 502.692,580.308 503,579.5C 503.709,571.98 503.543,564.48 502.5,557C 502.213,550.622 505.213,546.955 511.5,546C 518.167,545.667 524.833,545.333 531.5,545C 534.314,541.815 536.981,538.648 539.5,535.5 Z"/></g>
<g><path style="opacity:0.999" fill="#aa8839" d="M 272.5,542.5 C 286.796,540.969 293.962,547.303 294,561.5C 287.965,575.509 278.632,578.176 266,569.5C 258.651,558.201 260.818,549.201 272.5,542.5 Z"/></g>
<g><path style="opacity:0.999" fill="#aa8839" d="M 1011.5,542.5 C 1027.09,541.914 1033.59,549.247 1031,564.5C 1026.08,573.762 1018.91,575.929 1009.5,571C 999.724,560.72 1000.39,551.22 1011.5,542.5 Z"/></g>
<g><path style="opacity:0.999" fill="#fdfdfd" d="M 737.5,547.5 C 740.167,547.5 742.833,547.5 745.5,547.5C 745.405,603.155 745.239,658.821 745,714.5C 744.167,717.333 742.333,719.167 739.5,720C 735.653,721.616 731.653,722.616 727.5,723C 704.5,723.333 681.5,723.667 658.5,724C 654.98,726.874 651.147,727.708 647,726.5C 646.833,725 646.667,723.5 646.5,722C 647.698,704.879 647.698,687.713 646.5,670.5C 646.371,663.731 646.871,657.064 648,650.5C 648.718,649.549 649.551,649.383 650.5,650C 652.617,651.731 654.117,653.898 655,656.5C 656.425,662.506 656.925,668.506 656.5,674.5C 662.76,675.918 669.093,676.418 675.5,676C 676.91,675.632 677.91,674.799 678.5,673.5C 675.501,669.005 672.001,665.005 668,661.5C 667.317,656.766 666.317,652.1 665,647.5C 659.334,629.512 653.667,611.512 648,593.5C 647.333,581.5 647.333,569.5 648,557.5C 651.955,553.625 656.788,551.792 662.5,552C 681.802,553.195 701.135,553.528 720.5,553C 726.725,552.535 732.392,550.701 737.5,547.5 Z"/></g>
<g><path style="opacity:0.999" fill="#fdfdfd" d="M 543.5,548.5 C 549.072,549.079 554.406,550.579 559.5,553C 575.855,553.457 592.189,552.957 608.5,551.5C 615.182,551.789 621.849,552.289 628.5,553C 635.19,553.866 638.524,557.7 638.5,564.5C 637.925,577.188 637.092,589.854 636,602.5C 630.021,623.084 624.354,643.75 619,664.5C 617.493,667.426 615.159,669.426 612,670.5C 611.137,672.749 611.637,674.582 613.5,676C 618.222,676.777 622.889,676.61 627.5,675.5C 628.331,668.524 628.831,661.524 629,654.5C 630.046,652.91 631.213,651.41 632.5,650C 634.259,649.202 635.926,649.369 637.5,650.5C 638.679,654.064 639.346,657.73 639.5,661.5C 638.886,682.395 638.219,703.228 637.5,724C 610.178,723.792 582.845,723.459 555.5,723C 551.205,722.102 547.372,720.269 544,717.5C 543.735,681.162 543.235,644.829 542.5,608.5C 543.472,588.428 543.805,568.428 543.5,548.5 Z"/></g>
<g><path style="opacity:0.999" fill="#a88738" d="M 770.5,550.5 C 774.713,550.22 777.88,551.887 780,555.5C 780.333,563.167 780.667,570.833 781,578.5C 781.375,581 782.208,583.333 783.5,585.5C 790.314,587.687 797.314,589.187 804.5,590C 807.269,593.607 806.936,596.94 803.5,600C 798.25,601.174 792.916,601.841 787.5,602C 784.417,602.786 782.251,604.619 781,607.5C 780.72,630.506 780.22,653.506 779.5,676.5C 779.353,683.301 780.186,689.968 782,696.5C 784.304,698.068 786.804,699.235 789.5,700C 794.916,700.159 800.25,700.826 805.5,702C 809.959,707.208 808.959,711.208 802.5,714C 797.167,714.333 791.833,714.667 786.5,715C 785.584,715.374 784.75,715.874 784,716.5C 780.938,727.601 779.271,738.934 779,750.5C 778.167,751.333 777.333,752.167 776.5,753C 770.564,754.139 764.564,754.805 758.5,755C 726.167,755.667 693.833,755.667 661.5,755C 657.192,751.241 657.859,748.575 663.5,747C 695.847,746.848 728.181,746.181 760.5,745C 764.491,744.588 767.658,742.754 770,739.5C 771.845,679.839 771.845,620.173 770,560.5C 765.205,556.723 765.371,553.39 770.5,550.5 Z"/></g>
<g><path style="opacity:0.999" fill="#a98738" d="M 517.5,552.5 C 520.864,551.873 522.864,553.206 523.5,556.5C 522.53,559.774 521.03,562.774 519,565.5C 517.939,573.79 517.439,582.123 517.5,590.5C 518.795,625.167 518.795,659.834 517.5,694.5C 517.847,711.196 518.681,727.863 520,744.5C 520.833,745.333 521.667,746.167 522.5,747C 525.167,747.167 527.833,747.333 530.5,747.5C 561.826,746.395 593.159,746.229 624.5,747C 626.35,748.845 626.683,750.845 625.5,753C 614.558,754.24 603.558,754.907 592.5,755C 566.832,755.736 541.166,756.07 515.5,756C 512.732,754.238 511.232,751.738 511,748.5C 510.918,739.092 510.251,729.759 509,720.5C 507.786,718.951 506.286,717.785 504.5,717C 499.231,715.894 493.897,715.227 488.5,715C 484.05,714.78 481.05,712.614 479.5,708.5C 481.293,705.434 483.96,703.6 487.5,703C 493.551,702.74 499.551,702.073 505.5,701C 507.723,700.348 508.89,698.848 509,696.5C 510.614,668.868 510.948,641.202 510,613.5C 509.235,610.804 508.068,608.304 506.5,606C 499.403,604.854 492.236,604.02 485,603.5C 477.511,599.031 477.678,594.865 485.5,591C 490.5,590.667 495.5,590.333 500.5,590C 505.438,589.728 508.604,587.228 510,582.5C 510.123,573.773 510.79,565.106 512,556.5C 513.5,554.531 515.333,553.198 517.5,552.5 Z"/></g>
<g><path style="opacity:0.997" fill="#fafafa" d="M 754.5,553.5 C 758.485,555.321 761.319,558.321 763,562.5C 763.333,566.833 763.667,571.167 764,575.5C 764.665,626.837 764.499,678.17 763.5,729.5C 761.097,729.607 759.264,728.607 758,726.5C 755.806,723.446 754.139,720.112 753,716.5C 752.847,667.827 752.681,619.16 752.5,570.5C 752.667,565.833 752.833,561.167 753,556.5C 754.039,555.756 754.539,554.756 754.5,553.5 Z"/></g>
<g><path style="opacity:0.999" fill="#f8f8f8" d="M 530.5,557.5 C 531.822,557.33 532.989,557.663 534,558.5C 534.667,612.833 534.667,667.167 534,721.5C 532.364,725.139 530.03,728.139 527,730.5C 526.228,730.355 525.561,730.022 525,729.5C 524.333,675.167 524.333,620.833 525,566.5C 526.662,563.351 528.495,560.351 530.5,557.5 Z"/></g>
<g><path style="opacity:0.999" fill="#a98838" d="M 155.5,580.5 C 171.062,582.304 176.562,590.637 172,605.5C 164.571,614.609 156.071,615.776 146.5,609C 138.159,595.858 141.159,586.358 155.5,580.5 Z"/></g>
<g><path style="opacity:0.999" fill="#aa8839" d="M 1133.5,580.5 C 1141.94,580.782 1147.77,584.782 1151,592.5C 1152.98,601.593 1149.81,608.093 1141.5,612C 1128.23,612.395 1122.06,605.895 1123,592.5C 1124.96,587.044 1128.46,583.044 1133.5,580.5 Z"/></g>
<g><path style="opacity:1" fill="#060606" d="M 566.5,592.5 C 570.613,593.972 574.78,595.305 579,596.5C 585.812,595.947 592.645,595.781 599.5,596C 603.237,595.548 606.737,594.382 610,592.5C 611.261,592.759 612.261,593.426 613,594.5C 613.147,599.317 612.313,603.984 610.5,608.5C 608.926,609.631 607.259,609.798 605.5,609C 603.615,606.778 601.449,604.944 599,603.5C 597.108,603.777 595.775,604.777 595,606.5C 594.771,626.17 595.104,645.836 596,665.5C 601.784,674.926 598.951,678.593 587.5,676.5C 575.886,677.925 573.719,674.259 581,665.5C 581.985,663.634 582.485,661.634 582.5,659.5C 581.656,641.507 581.489,623.507 582,605.5C 579.997,603.078 577.497,602.245 574.5,603C 570.833,605.333 567.833,608.333 565.5,612C 564.5,612.667 563.5,612.667 562.5,612C 561.218,605 562.551,598.5 566.5,592.5 Z"/></g>
<g><path style="opacity:1" fill="#060606" d="M 714.5,596.5 C 716.833,596.5 719.167,596.5 721.5,596.5C 722.058,600.011 722.724,603.511 723.5,607C 723.435,609.526 722.768,611.859 721.5,614C 720.167,614.667 718.833,614.667 717.5,614C 715.5,611.667 713.5,609.333 711.5,607C 708.318,606.593 705.151,606.093 702,605.5C 695.461,607.735 693.794,612.069 697,618.5C 703.852,625.673 711.685,631.507 720.5,636C 730.674,645.226 732.174,655.726 725,667.5C 720.407,672.758 714.574,675.425 707.5,675.5C 702.923,674.475 698.423,673.142 694,671.5C 692.016,671.741 690.183,672.408 688.5,673.5C 687.914,673.291 687.414,672.957 687,672.5C 686.573,668.324 686.073,664.158 685.5,660C 685.13,655.314 687.13,653.314 691.5,654C 695.113,664.611 702.447,668.945 713.5,667C 719.116,661.914 719.949,656.081 716,649.5C 707,642.167 698,634.833 689,627.5C 683.943,617.638 685.443,608.804 693.5,601C 695.717,599.725 698.051,598.725 700.5,598C 705.351,597.826 710.018,597.326 714.5,596.5 Z"/></g>
<g><path style="opacity:0.999" fill="#a98838" d="M 1036.5,612.5 C 1037.12,612.611 1037.62,612.944 1038,613.5C 1039.31,629.028 1041.81,644.362 1045.5,659.5C 1041.91,669.681 1036.08,678.347 1028,685.5C 1027.94,672.846 1025.94,660.513 1022,648.5C 1021.16,640.327 1022.83,632.66 1027,625.5C 1030,621.008 1033.16,616.675 1036.5,612.5 Z"/></g>
<g><path style="opacity:0.999" fill="#a98839" d="M 258.5,613.5 C 260.716,614.203 262.549,615.536 264,617.5C 271.361,626.548 275.027,636.881 275,648.5C 270.869,660.487 268.536,672.82 268,685.5C 260.218,678.266 254.718,669.6 251.5,659.5C 255.138,644.338 257.472,629.005 258.5,613.5 Z"/></g>
<g><path style="opacity:0.999" fill="#a88738" d="M 305.5,616.5 C 306.496,616.414 307.329,616.748 308,617.5C 306.733,632.004 308.9,646.004 314.5,659.5C 307.194,668.439 301.694,678.439 298,689.5C 295.7,682.005 295.033,674.338 296,666.5C 296.305,661.585 297.805,657.085 300.5,653C 299.833,652.333 299.167,652.333 298.5,653C 293.181,660.614 290.015,669.114 289,678.5C 287.669,687.816 286.502,697.149 285.5,706.5C 281.51,702.341 277.676,698.007 274,693.5C 274.13,671.979 279.13,651.646 289,632.5C 291.5,629.333 294,626.167 296.5,623C 299.567,620.812 302.567,618.645 305.5,616.5 Z"/></g>
<g><path style="opacity:0.999" fill="#aa8839" d="M 989.5,615.5 C 997.4,619.232 1003.57,624.898 1008,632.5C 1018.15,651.581 1022.82,671.915 1022,693.5C 1018.33,697.833 1014.67,702.167 1011,706.5C 1010.24,695.431 1008.91,684.431 1007,673.5C 1005.97,665.04 1002.63,657.707 997,651.5C 998.146,654.62 999.146,657.954 1000,661.5C 1000.89,670.895 1000.55,680.228 999,689.5C 995.174,678.343 989.674,668.176 982.5,659C 987.718,644.862 990.051,630.362 989.5,615.5 Z"/></g>
<g><path style="opacity:0.991" fill="#f4f4f4" d="M 636.5,620.5 C 639.734,620.237 641.068,621.737 640.5,625C 639.847,630.485 639.347,635.985 639,641.5C 636.546,643.013 634.879,642.346 634,639.5C 633.833,638 633.667,636.5 633.5,635C 634.4,630.137 635.4,625.304 636.5,620.5 Z"/></g>
<g><path style="opacity:0.999" fill="#aa8839" d="M 1057.5,634.5 C 1059.02,634.511 1060.18,635.177 1061,636.5C 1077.07,671.306 1077.57,706.306 1062.5,741.5C 1056.21,745.566 1050.38,750.233 1045,755.5C 1053.05,735.239 1057.55,714.072 1058.5,692C 1058.41,688.241 1057.41,684.741 1055.5,681.5C 1053.95,680.548 1052.29,680.215 1050.5,680.5C 1052.22,698.501 1047.06,714.168 1035,727.5C 1027.82,739.532 1023.99,752.532 1023.5,766.5C 1024.5,766.5 1025.5,766.5 1026.5,766.5C 1029.59,752.663 1035.59,740.329 1044.5,729.5C 1045.66,732.784 1045.82,736.118 1045,739.5C 1042.16,748.185 1038.49,756.519 1034,764.5C 1033.5,766.473 1033.34,768.473 1033.5,770.5C 1035.2,770.66 1036.87,770.494 1038.5,770C 1059.33,750.006 1084.16,738.506 1113,735.5C 1119.22,735.953 1125.38,736.786 1131.5,738C 1132.31,738.308 1132.97,738.808 1133.5,739.5C 1120.67,747.82 1109.17,757.82 1099,769.5C 1091.46,789.822 1077.3,802.655 1056.5,808C 1032.86,786.031 1009.53,763.698 986.5,741C 977.891,733.531 967.891,729.031 956.5,727.5C 954.111,700.868 954.111,674.202 956.5,647.5C 956.833,646.167 957.167,644.833 957.5,643.5C 964.624,646.981 970.458,651.981 975,658.5C 991.455,685.198 1001.12,714.198 1004,745.5C 1005.52,747.62 1007.36,747.953 1009.5,746.5C 1010.17,722.171 1019.67,702.171 1038,686.5C 1047.88,672.398 1053.55,656.732 1055,639.5C 1055.37,637.548 1056.2,635.882 1057.5,634.5 Z"/></g>
<g><path style="opacity:0.999" fill="#aa8839" d="M 237.5,635.5 C 239.411,635.574 240.578,636.574 241,638.5C 242.828,663.058 252.828,683.391 271,699.5C 281.676,713.696 286.843,729.696 286.5,747.5C 290.182,748.275 292.682,746.941 294,743.5C 296.288,712.301 305.955,683.634 323,657.5C 326.167,654.333 329.333,651.167 332.5,648C 334.818,646.007 337.484,644.841 340.5,644.5C 341.733,672.515 341.733,700.515 340.5,728.5C 331.243,728.087 322.91,730.587 315.5,736C 292.975,757.103 270.642,778.436 248.5,800C 244.951,803.057 241.284,805.891 237.5,808.5C 218.149,802.245 204.982,789.578 198,770.5C 187.64,758.462 175.806,748.295 162.5,740C 168.756,737.549 175.256,736.382 182,736.5C 211.285,738.587 236.451,749.754 257.5,770C 259.345,771.128 261.345,771.628 263.5,771.5C 263.662,769.473 263.495,767.473 263,765.5C 257.2,756.237 253.367,746.237 251.5,735.5C 251.833,733.833 252.167,732.167 252.5,730.5C 254.895,732.944 257.062,735.61 259,738.5C 263.722,747.943 267.889,757.609 271.5,767.5C 272.086,767.291 272.586,766.957 273,766.5C 272.216,747.48 265.549,730.813 253,716.5C 247.324,705.451 244.99,693.785 246,681.5C 244.062,680.14 242.396,680.473 241,682.5C 239.158,685.754 238.325,689.254 238.5,693C 239.361,714.637 243.527,735.47 251,755.5C 246.136,750.323 240.636,745.99 234.5,742.5C 220.366,709.426 219.866,676.092 233,642.5C 234.012,639.798 235.512,637.465 237.5,635.5 Z"/></g>
<g><path style="opacity:0.99" fill="#f0f0f0" d="M 646.5,636.5 C 648.912,636.694 649.912,638.027 649.5,640.5C 648.5,640.5 647.5,640.5 646.5,640.5C 646.5,639.167 646.5,637.833 646.5,636.5 Z"/></g>
<g><path style="opacity:0.999" fill="#aa8939" d="M 1116.5,641.5 C 1117.82,641.33 1118.99,641.663 1120,642.5C 1120.67,644.833 1120.67,647.167 1120,649.5C 1111.55,667.949 1106.22,687.282 1104,707.5C 1102.46,716.825 1098.62,724.991 1092.5,732C 1084.71,733.863 1077.05,735.863 1069.5,738C 1072.25,732.754 1074.42,727.254 1076,721.5C 1078.11,712.517 1080.11,703.517 1082,694.5C 1084.5,688.163 1088,682.497 1092.5,677.5C 1091.64,676.417 1090.64,676.251 1089.5,677C 1086.67,679.833 1083.83,682.667 1081,685.5C 1080.3,679.825 1079.97,674.158 1080,668.5C 1088.97,655.009 1101.14,646.009 1116.5,641.5 Z"/></g>
<g><path style="opacity:0.999" fill="#aa8839" d="M 177.5,642.5 C 194.577,645.738 207.744,654.738 217,669.5C 217.054,674.843 216.554,680.177 215.5,685.5C 212.683,683.183 210.016,680.683 207.5,678C 206.167,677.333 204.833,677.333 203.5,678C 213.14,688.572 218.307,701.072 219,715.5C 221.172,723.668 223.505,731.668 226,739.5C 219.075,736.642 211.909,734.476 204.5,733C 199.941,728.72 196.774,723.553 195,717.5C 192.228,700.639 188.561,683.972 184,667.5C 181.609,661.051 178.942,654.718 176,648.5C 175.252,646.16 175.752,644.16 177.5,642.5 Z"/></g>
<g><path style="opacity:0.999" fill="#a98838" d="M 149.5,670.5 C 150.873,670.343 152.207,670.51 153.5,671C 161.829,678.163 171.496,681.997 182.5,682.5C 185.044,691.395 186.044,700.395 185.5,709.5C 183.293,706.235 180.293,704.235 176.5,703.5C 179.511,713.853 184.845,722.853 192.5,730.5C 188.205,731.661 183.871,731.828 179.5,731C 161.019,714.872 151.019,694.705 149.5,670.5 Z"/></g>
<g><path style="opacity:1" fill="#050301" d="M 962.5,669.5 C 967.061,671.225 970.561,674.225 973,678.5C 982.854,695.593 988.187,713.926 989,733.5C 988.692,734.308 988.192,734.975 987.5,735.5C 985.364,734.528 984.197,732.861 984,730.5C 983.793,726.911 983.293,723.411 982.5,720C 981.551,719.383 980.718,719.549 980,720.5C 979.667,723.5 979.333,726.5 979,729.5C 977.062,730.86 975.396,730.527 974,728.5C 973.87,716.126 973.203,703.792 972,691.5C 969.618,683.745 966.451,676.412 962.5,669.5 Z"/></g>
<g><path style="opacity:0.999" fill="#aa8839" d="M 1144.5,669.5 C 1145.5,669.5 1146.5,669.5 1147.5,669.5C 1145.75,693.755 1135.75,713.921 1117.5,730C 1113.65,730.354 1109.81,730.854 1106,731.5C 1105.17,731.167 1104.33,730.833 1103.5,730.5C 1110.61,723.265 1115.95,714.931 1119.5,705.5C 1119.33,704.5 1119.17,703.5 1119,702.5C 1116.19,704.15 1113.69,706.15 1111.5,708.5C 1110.92,699.434 1111.76,690.434 1114,681.5C 1125.55,681.365 1135.72,677.365 1144.5,669.5 Z"/></g>
<g><path style="opacity:1" fill="#050301" d="M 332.5,670.5 C 333.239,670.369 333.906,670.536 334.5,671C 332.141,675.549 329.641,680.049 327,684.5C 325.687,688.42 324.687,692.42 324,696.5C 323.667,707.167 323.333,717.833 323,728.5C 321.599,730.192 319.766,730.859 317.5,730.5C 317.665,727.482 317.498,724.482 317,721.5C 316.282,720.549 315.449,720.383 314.5,721C 313.709,725.133 312.876,729.3 312,733.5C 311.424,736.124 310.09,736.791 308,735.5C 308.374,714.681 314.041,695.347 325,677.5C 327.396,674.933 329.896,672.6 332.5,670.5 Z"/></g>
<g><path style="opacity:0.999" fill="#aa8839" d="M 386.5,717.5 C 402.997,717.183 408.831,724.85 404,740.5C 394.98,749.999 386.313,749.665 378,739.5C 374.457,729.6 377.29,722.267 386.5,717.5 Z"/></g>
<g><path style="opacity:0.999" fill="#aa8839" d="M 898.5,717.5 C 911.98,716.151 918.48,722.151 918,735.5C 913.771,746.464 906.271,749.631 895.5,745C 888.136,739.054 886.636,731.888 891,723.5C 893.114,720.879 895.614,718.879 898.5,717.5 Z"/></g>
<g><path style="opacity:0.999" fill="#fcfcfc" d="M 539.5,725.5 C 544.193,725.898 548.526,727.398 552.5,730C 578.478,731.224 604.478,731.89 630.5,732C 634.037,733.826 634.371,736.16 631.5,739C 598.16,739.697 564.827,739.53 531.5,738.5C 531.891,732.709 534.558,728.376 539.5,725.5 Z"/></g>
<g><path style="opacity:0.997" fill="#fbfbfb" d="M 744.5,725.5 C 746.527,725.338 748.527,725.505 750.5,726C 754.293,729.426 756.626,733.592 757.5,738.5C 723.863,739.646 690.196,739.812 656.5,739C 653.629,736.16 653.963,733.826 657.5,732C 678.5,731.667 699.5,731.333 720.5,731C 727.578,730.543 734.578,729.543 741.5,728C 742.942,727.623 743.942,726.79 744.5,725.5 Z"/></g>
<g><path style="opacity:1" fill="#fdfdfd" d="M 334.5,735.5 C 355.369,734.538 362.203,743.871 355,763.5C 348.242,770.458 341.909,770.124 336,762.5C 334.632,759.262 334.299,755.928 335,752.5C 336.699,751.594 338.533,751.261 340.5,751.5C 340.208,747.996 338.208,746.329 334.5,746.5C 326.292,748.241 323.125,753.241 325,761.5C 328.758,770.375 335.425,775.042 345,775.5C 371.279,768.039 393.612,774.372 412,794.5C 416.004,799.557 417.338,805.224 416,811.5C 414.992,813.259 413.492,814.426 411.5,815C 398.799,812.888 391.132,818.054 388.5,830.5C 389.476,836.979 393.143,841.146 399.5,843C 407.966,843.049 416.3,844.049 424.5,846C 458.559,869.699 495.225,888.699 534.5,903C 641.158,936.626 742.825,925.293 839.5,869C 850.006,862.247 860.34,855.247 870.5,848C 878.212,845.084 886.212,843.75 894.5,844C 903.422,841.977 907.255,836.477 906,827.5C 902.778,818.28 896.278,813.78 886.5,814C 879.487,808.062 878.654,801.229 884,793.5C 895.697,779.902 910.53,773.236 928.5,773.5C 937.511,774.227 946.511,774.727 955.5,775C 962,771.167 967.167,766 971,759.5C 971.831,751.818 968.331,747.485 960.5,746.5C 952.628,748.479 952.628,750.812 960.5,753.5C 963.866,763.986 960.199,768.82 949.5,768C 945.151,763.93 940.984,759.764 937,755.5C 935.492,745.65 939.659,739.484 949.5,737C 960.785,734.987 970.785,737.654 979.5,745C 1005.3,769.136 1030.8,793.636 1056,818.5C 1063.28,829.767 1063.28,841.1 1056,852.5C 1050.07,861.766 1042.24,868.932 1032.5,874C 1019.97,877.489 1009.47,874.322 1001,864.5C 981.88,839.712 962.38,815.212 942.5,791C 931.366,782.613 919.032,780.28 905.5,784C 899.728,786.634 894.561,790.134 890,794.5C 886.278,799.79 887.112,804.29 892.5,808C 901.437,809.137 909.437,812.47 916.5,818C 940.079,843.575 962.912,869.741 985,896.5C 994.781,919.498 988.281,935.998 965.5,946C 956.592,946.314 948.259,948.648 940.5,953C 812.782,1046.4 672.115,1073.07 518.5,1033C 459.335,1016.75 405.335,990.415 356.5,954C 344.268,949.588 332.268,944.588 320.5,939C 307.545,927.683 304.045,913.85 310,897.5C 334.089,868.74 358.923,840.573 384.5,813C 390.628,809.1 397.128,806.266 404,804.5C 405.422,801.97 405.755,799.303 405,796.5C 394.701,782.423 381.201,777.589 364.5,782C 362.004,783.08 359.67,784.414 357.5,786C 333.357,813.964 309.69,842.297 286.5,871C 267.614,878.567 252.114,874.067 240,857.5C 232.633,845.654 231.633,833.321 237,820.5C 265.802,794.033 294.302,767.199 322.5,740C 326.571,738.37 330.571,736.87 334.5,735.5 Z M 929.5,760.5 C 929.714,762.144 929.38,763.644 928.5,765C 930.167,765.667 931.833,765.667 933.5,765C 932.267,763.333 930.933,761.833 929.5,760.5 Z"/></g>
<g><path style="opacity:0.998" fill="#a78638" d="M 640.5,739.5 C 647.493,739.322 651.159,742.822 651.5,750C 651.054,753.175 650.554,756.342 650,759.5C 645.337,763.753 641.003,763.42 637,758.5C 634.039,753.741 633.705,748.741 636,743.5C 637.667,742.267 639.167,740.933 640.5,739.5 Z"/></g>
<g><path style="opacity:0.994" fill="#a68537" d="M 373.5,746.5 C 375.683,747.85 377.35,749.684 378.5,752C 377.588,756.446 377.255,760.946 377.5,765.5C 375.833,765.5 374.167,765.5 372.5,765.5C 372.209,759.077 372.542,752.744 373.5,746.5 Z"/></g>
<g><path style="opacity:0.998" fill="#a48337" d="M 919.5,747.5 C 920.222,747.918 920.722,748.584 921,749.5C 921.499,755.157 921.666,760.824 921.5,766.5C 919.409,766.318 917.409,766.652 915.5,767.5C 914.757,762.665 914.09,757.832 913.5,753C 915.375,750.955 917.375,749.122 919.5,747.5 Z"/></g>
<g><path style="opacity:0.999" fill="#080502" d="M 1079.5,759.5 C 1082.25,759.187 1084.91,759.52 1087.5,760.5C 1074.72,770.446 1063.05,781.613 1052.5,794C 1051.83,794.667 1051.17,794.667 1050.5,794C 1048.76,791.037 1048.26,787.871 1049,784.5C 1057.61,774.033 1067.78,765.7 1079.5,759.5 Z"/></g>
<g><path style="opacity:0.999" fill="#090602" d="M 210.5,759.5 C 213.947,759.814 217.28,760.648 220.5,762C 230.843,768.334 240.01,776.168 248,785.5C 248.815,789.389 247.815,792.722 245,795.5C 234.235,782.419 222.068,770.919 208.5,761C 209.416,760.722 210.082,760.222 210.5,759.5 Z"/></g>
<g><path style="opacity:1" fill="#fbfbfb" d="M 370.5,787.5 C 381.385,786.944 390.385,790.777 397.5,799C 390.573,800.629 384.239,803.629 378.5,808C 360.648,827.685 342.981,847.518 325.5,867.5C 322.534,861.368 318.034,856.701 312,853.5C 328.038,832.043 345.204,811.209 363.5,791C 365.925,789.787 368.259,788.621 370.5,787.5 Z"/></g>
<g><path style="opacity:1" fill="#fbfbfb" d="M 912.5,789.5 C 921.274,788.952 929.274,791.119 936.5,796C 952.07,814.401 967.07,833.234 981.5,852.5C 976.029,855.224 971.362,858.891 967.5,863.5C 951.754,844.584 935.088,826.417 917.5,809C 911.023,804.927 904.023,802.26 896.5,801C 895.939,799.434 896.606,798.101 898.5,797C 902.826,793.673 907.492,791.173 912.5,789.5 Z"/></g>
<g><path style="opacity:0.999" fill="#aa8839" d="M 461.5,797.5 C 463.308,797.491 464.975,797.991 466.5,799C 477.259,809.421 486.092,821.255 493,834.5C 493.831,842.188 493.665,849.855 492.5,857.5C 489.195,856.028 486.695,853.695 485,850.5C 482.27,844.309 479.937,837.976 478,831.5C 477.276,829.041 475.943,828.041 474,828.5C 473.333,830.5 473.333,832.5 474,834.5C 478.356,845.61 481.189,857.11 482.5,869C 482.167,869.833 481.833,870.667 481.5,871.5C 473.925,867.89 466.925,863.557 460.5,858.5C 459.402,851.197 459.235,843.864 460,836.5C 461.824,830.205 463.324,823.872 464.5,817.5C 463.998,811.655 462.664,805.988 460.5,800.5C 460.685,799.416 461.018,798.416 461.5,797.5 Z"/></g>
<g><path style="opacity:0.999" fill="#a98838" d="M 830.5,796.5 C 832.722,796.559 833.722,797.725 833.5,800C 831.135,805.427 829.802,811.094 829.5,817C 830.774,823.838 832.274,830.671 834,837.5C 834.702,846.203 834.368,854.87 833,863.5C 826.025,868.57 818.525,872.403 810.5,875C 811.902,861.434 815.068,848.267 820,835.5C 820.874,832.621 820.54,829.955 819,827.5C 818.333,828.167 817.667,828.833 817,829.5C 814.485,836.563 811.818,843.563 809,850.5C 807.636,853.363 805.47,855.363 802.5,856.5C 801.459,849.505 800.959,842.505 801,835.5C 805.876,825.967 811.543,816.967 818,808.5C 821.403,803.595 825.57,799.595 830.5,796.5 Z"/></g>
<g><path style="opacity:0.999" fill="#aa8839" d="M 433.5,822.5 C 436.607,822.351 439.607,822.851 442.5,824C 446.633,827.131 450.466,830.631 454,834.5C 454.214,841.085 452.381,847.085 448.5,852.5C 445.086,850.043 441.586,847.709 438,845.5C 437.649,838.261 435.815,831.428 432.5,825C 432.743,824.098 433.077,823.265 433.5,822.5 Z"/></g>
<g><path style="opacity:0.999" fill="#a88738" d="M 855.5,821.5 C 858.261,820.915 859.927,821.915 860.5,824.5C 856.696,831.828 855.696,839.494 857.5,847.5C 853.465,850.857 849.132,853.857 844.5,856.5C 844.114,850.841 842.614,845.507 840,840.5C 839.333,838.5 839.333,836.5 840,834.5C 843.869,828.452 849.035,824.118 855.5,821.5 Z"/></g>
<g><path style="opacity:0.999" fill="#aa8839" d="M 504.5,827.5 C 506.39,827.297 507.89,827.963 509,829.5C 514.526,839.033 520.859,848.033 528,856.5C 534.302,863.803 540.968,870.803 548,877.5C 552.816,884.449 554.649,892.116 553.5,900.5C 548.118,899.373 542.784,898.039 537.5,896.5C 533.655,879.976 525.988,865.476 514.5,853C 512.975,851.991 511.308,851.491 509.5,851.5C 512.735,856.656 514.901,862.323 516,868.5C 516.5,874.825 516.666,881.158 516.5,887.5C 512.181,886.259 508.015,884.592 504,882.5C 498.892,869.627 496.892,856.293 498,842.5C 499.092,836.987 501.259,831.987 504.5,827.5 Z"/></g>
<g><path style="opacity:0.999" fill="#aa8839" d="M 786.5,827.5 C 788.722,827.178 790.556,827.845 792,829.5C 793.725,832.674 795.058,836.007 796,839.5C 798.061,855.05 796.061,870.05 790,884.5C 786.553,887.038 782.72,888.705 778.5,889.5C 778.334,881.826 778.5,874.159 779,866.5C 779.827,861.181 781.994,856.515 785.5,852.5C 785.167,851.5 784.5,850.833 783.5,850.5C 769.686,863.509 760.686,879.342 756.5,898C 752.47,899.065 748.47,900.232 744.5,901.5C 743.833,901.167 743.167,900.833 742.5,900.5C 740.855,891.745 742.688,883.745 748,876.5C 763.388,861.972 776.221,845.639 786.5,827.5 Z"/></g>
<g><path style="opacity:0.997" fill="#060606" d="M 404.5,859.5 C 405.552,859.351 406.552,859.517 407.5,860C 415.388,865.397 423.388,870.564 431.5,875.5C 431.167,875.833 430.833,876.167 430.5,876.5C 426.251,873.306 422.751,873.973 420,878.5C 414.833,886.833 409.667,895.167 404.5,903.5C 415.751,910.375 426.918,917.375 438,924.5C 444.646,915.179 450.479,905.345 455.5,895C 454.747,891.914 452.914,889.748 450,888.5C 449.312,887.668 449.479,887.002 450.5,886.5C 459.365,891.761 468.032,897.261 476.5,903C 476.333,903.5 476.167,904 476,904.5C 472.796,901.887 469.63,901.887 466.5,904.5C 455.083,922.332 443.916,940.332 433,958.5C 429.97,963.226 427.47,968.226 425.5,973.5C 426.028,976.861 427.861,979.194 431,980.5C 431.688,981.332 431.521,981.998 430.5,982.5C 421.295,977.069 412.295,971.403 403.5,965.5C 403.833,965.167 404.167,964.833 404.5,964.5C 408.749,967.694 412.249,967.027 415,962.5C 421.632,952.067 428.132,941.567 434.5,931C 423.787,923.221 412.62,916.054 401,909.5C 393.829,920.504 387.162,931.838 381,943.5C 380.341,948.05 382.174,951.384 386.5,953.5C 386,953.833 385.5,954.167 385,954.5C 376.1,949.299 367.267,943.966 358.5,938.5C 361.057,938.218 363.723,938.051 366.5,938C 367.667,936.833 368.833,935.667 370,934.5C 382,915.167 394,895.833 406,876.5C 408.805,872.909 409.805,868.909 409,864.5C 407.242,862.917 405.742,861.25 404.5,859.5 Z"/></g>
<g><path style="opacity:0.999" fill="#9f8035" d="M 487.5,865.5 C 489.679,866.103 491.846,866.77 494,867.5C 494.361,870.525 494.861,873.525 495.5,876.5C 495.167,877.167 494.833,877.833 494.5,878.5C 488.62,876.261 486.287,871.927 487.5,865.5 Z"/></g>
<g><path style="opacity:0.993" fill="#a58437" d="M 804.5,865.5 C 806.969,869.617 806.803,873.95 804,878.5C 801.783,881.495 799.95,881.662 798.5,879C 799.492,874.875 800.159,870.709 800.5,866.5C 802.099,866.768 803.432,866.434 804.5,865.5 Z"/></g>
<g><path style="opacity:0.997" fill="#060606" d="M 859.5,882.5 C 875.941,881.304 889.108,887.304 899,900.5C 910.268,914.9 913.602,930.9 909,948.5C 905.378,957.456 899.545,964.623 891.5,970C 880.244,975.541 869.411,981.708 859,988.5C 858.5,988.167 858,987.833 857.5,987.5C 859.62,986.043 860.953,984.043 861.5,981.5C 848.688,957.874 834.855,934.874 820,912.5C 818.687,911.427 817.187,910.76 815.5,910.5C 812.972,911.942 810.305,912.442 807.5,912C 819.5,904.333 831.5,896.667 843.5,889C 848.819,886.497 854.152,884.331 859.5,882.5 Z"/></g>
<g><path style="opacity:0.999" fill="#a78638" d="M 571.5,882.5 C 574.642,882.799 576.809,884.466 578,887.5C 579.815,894.036 580.648,900.703 580.5,907.5C 574.134,906.325 567.8,904.992 561.5,903.5C 561.411,894.72 564.744,887.72 571.5,882.5 Z"/></g>
<g><path style="opacity:1" fill="#a98838" d="M 721.5,882.5 C 727.816,883.985 731.649,887.985 733,894.5C 733.498,897.817 733.665,901.15 733.5,904.5C 727.778,905.578 722.112,906.911 716.5,908.5C 715.334,902.482 715.501,896.482 717,890.5C 717.738,887.352 719.238,884.685 721.5,882.5 Z"/></g>
<g><path style="opacity:0.989" fill="#a98838" d="M 299.5,888.5 C 298.167,890.5 296.833,892.5 295.5,894.5C 292.15,894.335 288.817,894.502 285.5,895C 282.713,896.907 282.88,898.407 286,899.5C 288.653,898.284 291.153,898.284 293.5,899.5C 291.844,904.092 291.511,908.758 292.5,913.5C 282.793,905.985 271.793,901.152 259.5,899C 258.833,898.333 258.167,897.667 257.5,897C 270.182,887.831 284.182,884.998 299.5,888.5 Z"/></g>
<g><path style="opacity:0.98" fill="#a98838" d="M 1003.5,914.5 C 1003.78,909.405 1003.45,904.405 1002.5,899.5C 1005.33,898.799 1008.33,898.633 1011.5,899C 1012.73,897.413 1012.39,896.079 1010.5,895C 1006.85,894.501 1003.18,894.335 999.5,894.5C 998.529,892.517 997.529,890.517 996.5,888.5C 1003.65,887.345 1010.99,887.178 1018.5,888C 1026.22,889.173 1032.89,892.34 1038.5,897.5C 1032.35,900.101 1026.02,902.267 1019.5,904C 1013.47,906.543 1008.14,910.043 1003.5,914.5 Z"/></g>
<g><path style="opacity:0.985" fill="#9a7c33" d="M 525.5,886.5 C 528.002,888.17 530.002,890.336 531.5,893C 526.628,893.625 524.628,891.459 525.5,886.5 Z"/></g>
<g><path style="opacity:0.997" fill="#a08035" d="M 768.5,886.5 C 771.215,892.648 769.215,895.481 762.5,895C 764.387,892.05 766.387,889.216 768.5,886.5 Z"/></g>
<g><path style="opacity:1" fill="#fdfdfd" d="M 851.5,893.5 C 867.013,892.506 879.513,898.173 889,910.5C 895.809,919.614 899.976,929.78 901.5,941C 900.665,953.84 894.332,962.84 882.5,968C 876.565,970.875 871.732,969.709 868,964.5C 855.635,944.966 843.469,925.299 831.5,905.5C 836.978,899.431 843.644,895.431 851.5,893.5 Z"/></g>
<g><path style="opacity:0.901" fill="#050401" d="M 295.5,894.5 C 296.931,895.78 297.598,897.447 297.5,899.5C 296.167,899.5 294.833,899.5 293.5,899.5C 291.153,898.284 288.653,898.284 286,899.5C 282.88,898.407 282.713,896.907 285.5,895C 288.817,894.502 292.15,894.335 295.5,894.5 Z"/></g>
<g><path style="opacity:0.894" fill="#070502" d="M 999.5,894.5 C 1003.18,894.335 1006.85,894.501 1010.5,895C 1012.39,896.079 1012.73,897.413 1011.5,899C 1008.33,898.633 1005.33,898.799 1002.5,899.5C 1001.17,899.5 999.833,899.5 998.5,899.5C 998.366,897.708 998.699,896.042 999.5,894.5 Z"/></g>
<g><path style="opacity:0.997" fill="#060606" d="M 512.5,913.5 C 513.117,913.611 513.617,913.944 514,914.5C 513.325,942.003 512.158,969.503 510.5,997C 510.165,1002.39 510.999,1007.56 513,1012.5C 514.667,1013.5 516.333,1014.5 518,1015.5C 518.591,1016.48 518.257,1017.15 517,1017.5C 508.81,1014.65 500.977,1011.15 493.5,1007C 495.061,1006.68 496.228,1005.85 497,1004.5C 497.402,996.827 497.902,989.16 498.5,981.5C 498.41,979.036 497.743,976.87 496.5,975C 489.937,972.036 483.27,969.703 476.5,968C 470.972,974.227 465.806,980.727 461,987.5C 460.333,989.167 460.333,990.833 461,992.5C 462.586,993.376 464.086,994.376 465.5,995.5C 465,995.833 464.5,996.167 464,996.5C 455.956,993.382 448.123,990.048 440.5,986.5C 443.386,986.29 446.386,986.123 449.5,986C 452.965,983.537 456.131,980.704 459,977.5C 476.292,955.709 494.125,934.375 512.5,913.5 Z"/></g>
<g><path style="opacity:0.997" fill="#050505" d="M 776.5,922.5 C 793.69,921.516 803.023,929.683 804.5,947C 803.68,954.1 802.18,960.933 800,967.5C 811.547,977.36 824.047,985.86 837.5,993C 841.211,993.175 844.878,993.675 848.5,994.5C 841.387,998.706 833.72,1000.54 825.5,1000C 813.66,993.16 802.66,985.16 792.5,976C 788.524,976.047 784.858,977.214 781.5,979.5C 785.179,989.703 789.345,999.703 794,1009.5C 797.501,1010.1 801.001,1010.44 804.5,1010.5C 795.573,1014.09 786.573,1017.59 777.5,1021C 776.365,1021.75 775.365,1021.58 774.5,1020.5C 777.45,1019.38 779.45,1017.38 780.5,1014.5C 774.029,993.587 766.862,972.921 759,952.5C 757.067,947.022 754.567,941.855 751.5,937C 748.333,936.748 745.333,936.582 742.5,936.5C 743.09,935.201 744.09,934.368 745.5,934C 756.14,930.666 766.473,926.833 776.5,922.5 Z"/></g>
<g><path style="opacity:0.998" fill="#060606" d="M 547.5,929.5 C 559.719,932.76 572.052,935.593 584.5,938C 597.283,944.076 601.45,953.909 597,967.5C 592.909,975.917 587.075,982.75 579.5,988C 584.081,1000.74 589.247,1013.24 595,1025.5C 597.969,1030.47 602.136,1033.97 607.5,1036C 599.653,1036.54 592.32,1034.87 585.5,1031C 583.273,1028.44 581.439,1025.6 580,1022.5C 576.18,1012.22 572.513,1001.88 569,991.5C 565.883,989.716 562.55,988.383 559,987.5C 554.774,998.413 552.774,1009.75 553,1021.5C 555.14,1023.49 557.64,1024.82 560.5,1025.5C 559.5,1025.83 558.5,1026.17 557.5,1026.5C 548.256,1024.69 539.09,1022.69 530,1020.5C 529.833,1020.17 529.667,1019.83 529.5,1019.5C 532.167,1018.83 534.833,1018.17 537.5,1017.5C 544.157,992.722 549.99,967.722 555,942.5C 556.869,935.871 554.369,932.538 547.5,932.5C 547.5,931.5 547.5,930.5 547.5,929.5 Z"/></g>
<g><path style="opacity:1" fill="#fbfbfb" d="M 770.5,930.5 C 781.951,930.099 789.451,935.432 793,946.5C 796.483,953.806 796.316,960.973 792.5,968C 788.174,971.061 783.507,971.894 778.5,970.5C 774.265,958.628 769.932,946.795 765.5,935C 766.761,933.038 768.428,931.538 770.5,930.5 Z"/></g>
<g><path style="opacity:1" fill="#f9f9f9" d="M 500.5,937.5 C 501.16,938.964 501.493,940.631 501.5,942.5C 500.957,951.559 499.957,960.559 498.5,969.5C 492.682,967.09 487.015,964.423 481.5,961.5C 487.857,953.481 494.19,945.481 500.5,937.5 Z"/></g>
<g><path style="opacity:0.997" fill="#060606" d="M 704.5,938.5 C 705.496,938.414 706.329,938.748 707,939.5C 720,964.833 733,990.167 746,1015.5C 747.833,1018 749.667,1020.5 751.5,1023C 754.77,1023.99 758.103,1024.83 761.5,1025.5C 760.975,1026.19 760.308,1026.69 759.5,1027C 751.803,1027.98 744.136,1029.15 736.5,1030.5C 735.833,1030.17 735.167,1029.83 734.5,1029.5C 736.124,1028.13 736.624,1026.46 736,1024.5C 732.167,1016.83 728.333,1009.17 724.5,1001.5C 723.5,1001.17 722.5,1000.83 721.5,1000.5C 714.156,1001.14 706.989,1002.48 700,1004.5C 698.704,1011.98 697.537,1019.48 696.5,1027C 696.343,1032.34 699.01,1034.84 704.5,1034.5C 695.79,1035.98 687.123,1037.65 678.5,1039.5C 678.5,1038.5 678.5,1037.5 678.5,1036.5C 683.489,1036.68 686.655,1034.35 688,1029.5C 693.457,999.126 698.957,968.792 704.5,938.5 Z"/></g>
<g><path style="opacity:1" fill="#fafafa" d="M 568.5,940.5 C 583.243,942.94 588.743,951.607 585,966.5C 583.919,972.263 581.419,977.263 577.5,981.5C 573.551,984.92 569.217,985.42 564.5,983C 562.187,982.359 560.52,981.026 559.5,979C 562.431,966.112 565.431,953.279 568.5,940.5 Z"/></g>
<g><path style="opacity:0.997" fill="#060606" d="M 602.5,943.5 C 613.511,943.917 624.511,944.584 635.5,945.5C 633.922,946.298 632.256,946.798 630.5,947C 629.196,947.804 628.529,948.971 628.5,950.5C 634.191,971.934 640.191,993.267 646.5,1014.5C 654.292,994.626 661.792,974.626 669,954.5C 669.808,952.421 669.641,950.421 668.5,948.5C 666.465,947.959 664.465,947.292 662.5,946.5C 663.833,946.167 665.167,945.833 666.5,945.5C 673.846,946.019 681.179,946.686 688.5,947.5C 684.516,947.683 681.35,949.349 679,952.5C 667.304,981.771 655.137,1010.77 642.5,1039.5C 640.011,1035.56 638.177,1031.23 637,1026.5C 629.667,1002.5 622.333,978.5 615,954.5C 613.961,952.254 612.794,950.087 611.5,948C 608.066,946.939 605.066,945.439 602.5,943.5 Z"/></g>
<g><path style="opacity:1" fill="#f6f6f6" d="M 706.5,964.5 C 711.682,974.201 716.349,984.201 720.5,994.5C 714.176,995.249 707.843,995.915 701.5,996.5C 702.74,985.73 704.407,975.063 706.5,964.5 Z"/></g>
</svg>
