<?xml version="1.0" encoding="UTF-8"?>
<!DOCTYPE svg PUBLIC "-//W3C//DTD SVG 1.1//EN" "http://www.w3.org/Graphics/SVG/1.1/DTD/svg11.dtd">
<svg xmlns="http://www.w3.org/2000/svg" version="1.1" width="1540px" height="1499px" style="shape-rendering:geometricPrecision; text-rendering:geometricPrecision; image-rendering:optimizeQuality; fill-rule:evenodd; clip-rule:evenodd" xmlns:xlink="http://www.w3.org/1999/xlink">
<g><path style="opacity:0.996" fill="#009e4c" d="M 1033.5,-0.5 C 1052.83,-0.5 1072.17,-0.5 1091.5,-0.5C 1154.41,2.05007 1215.41,14.5501 1274.5,37C 1409.85,93.0332 1494.02,192.533 1527,335.5C 1533.98,369.31 1538.14,403.31 1539.5,437.5C 1539.5,451.167 1539.5,464.833 1539.5,478.5C 1536.97,520.712 1531.64,562.712 1523.5,604.5C 1415.17,604.5 1306.83,604.5 1198.5,604.5C 1187.3,646.946 1175.64,689.279 1163.5,731.5C 1270.17,732.167 1376.83,732.833 1483.5,733.5C 1467.07,775.521 1448.07,816.354 1426.5,856C 1328.83,856.5 1231.17,856.667 1133.5,856.5C 1121.22,899.124 1108.55,941.624 1095.5,984C 1179.17,984.333 1262.83,984.667 1346.5,985C 1219.77,1165.74 1057.44,1304.74 859.5,1402C 763.441,1448.6 662.441,1478.93 556.5,1493C 535.048,1495.29 513.715,1497.12 492.5,1498.5C 478.167,1498.5 463.833,1498.5 449.5,1498.5C 449.167,1497.17 448.833,1497.17 448.5,1498.5C 448.167,1498.5 447.833,1498.5 447.5,1498.5C 371.798,1496.52 299.464,1479.69 230.5,1448C 111.055,1387.49 37.8885,1291.33 11,1159.5C 4.70165,1127.3 0.868314,1094.97 -0.5,1062.5C -0.5,1048.83 -0.5,1035.17 -0.5,1021.5C 2.06213,971.019 9.06213,921.019 20.5,871.5C 111.167,871.5 201.833,871.5 292.5,871.5C 306.272,828.349 320.939,785.516 336.5,743C 244.501,742.5 152.501,742.333 60.5,742.5C 77.072,700.189 96.7386,659.356 119.5,620C 197.166,619.5 274.833,619.333 352.5,619.5C 367.001,576.83 382.001,534.33 397.5,492C 332.5,491.667 267.5,491.333 202.5,491C 339.096,301.855 514.763,161.522 729.5,70C 827.021,29.4506 928.355,5.95057 1033.5,-0.5 Z M 982.5,302.5 C 1096.5,302.333 1210.5,302.5 1324.5,303C 1310.76,364.791 1297.09,426.624 1283.5,488.5C 1217.5,489.333 1151.5,489.833 1085.5,490C 1071.13,489.107 1059.63,494.274 1051,505.5C 1011.33,652.176 972.668,798.843 935,945.5C 917.118,995.439 888.618,1038.27 849.5,1074C 775.435,1139.18 689.102,1178.18 590.5,1191C 575.56,1193 560.56,1194.33 545.5,1195C 434.167,1195.5 322.834,1195.67 211.5,1195.5C 229.167,1127.5 246.833,1059.5 264.5,991.5C 333.167,991.667 401.834,991.5 470.5,991C 499.349,987.756 518.349,972.423 527.5,945C 527.043,944.586 526.709,944.086 526.5,943.5C 557.525,815.205 588.359,686.872 619,558.5C 646.833,482.662 694,421.829 760.5,376C 827.741,331.197 901.741,306.697 982.5,302.5 Z"/></g>
</svg>
